<?xml version="1.0" standalone="no"?>
<!DOCTYPE svg PUBLIC "-//W3C//DTD SVG 1.1//EN" "http://www.w3.org/Graphics/SVG/1.1/DTD/svg11.dtd" >
<svg xmlns="http://www.w3.org/2000/svg" xmlns:xlink="http://www.w3.org/1999/xlink" version="1.1">
<metadata>
Created by FontForge 20160407 at Wed Aug  3 16:21:21 2016
 By Jimmy Wärting
Modern and elegant sans serif font.
</metadata>
<defs>
<font id="Nexa-Bold" horiz-adv-x="609" >
  <font-face 
    font-family="Nexa Bold"
    font-weight="700"
    font-stretch="normal"
    units-per-em="1000"
    panose-1="2 0 0 0 0 0 0 0 0 0"
    ascent="750"
    descent="-250"
    x-height="493"
    cap-height="700"
    bbox="-157 -294 1082.5 988"
    underline-thickness="50"
    underline-position="-100"
    stemh="104"
    stemv="112"
    unicode-range="U+0020-FB02"
  />
<missing-glyph horiz-adv-x="645" 
d="M242 134c0 -65 94 -65 94 0c0 66 -94 66 -94 0zM127 445h77c-1 55 50 80 99 80c48 0 106 -15 107 -79c1 -50 -39 -58 -77 -75c-47 -23 -80 -48 -80 -144l77 -1c0 47 6 66 38 80c39 25 121 38 119 140c0 108 -90 148 -184 148c-93 0 -177 -45 -176 -149zM37 0v700h538
v-700h-538z" />
    <glyph glyph-name=".notdef" horiz-adv-x="645" 
d="M242 134c0 -65 94 -65 94 0c0 66 -94 66 -94 0zM127 445h77c-1 55 50 80 99 80c48 0 106 -15 107 -79c1 -50 -39 -58 -77 -75c-47 -23 -80 -48 -80 -144l77 -1c0 47 6 66 38 80c39 25 121 38 119 140c0 108 -90 148 -184 148c-93 0 -177 -45 -176 -149zM37 0v700h538
v-700h-538z" />
    <glyph glyph-name=".null" horiz-adv-x="0" 
 />
    <glyph glyph-name="CR" horiz-adv-x="322" 
 />
    <glyph glyph-name="space" unicode=" " horiz-adv-x="249" 
 />
    <glyph glyph-name="slash" unicode="/" horiz-adv-x="495" 
d="M368 764h102l-344 -846h-101z" />
    <glyph glyph-name="backslash" unicode="\" horiz-adv-x="502" 
d="M25 764h109l343 -846h-108z" />
    <glyph glyph-name="underscore" unicode="_" horiz-adv-x="601" 
d="M65 -101v92h471v-92h-471z" />
    <glyph glyph-name="brokenbar" unicode="&#xa6;" horiz-adv-x="271" 
d="M189 341h-107v368h107v-368zM82 277h107v-367h-107v367z" />
    <glyph glyph-name="fraction" unicode="&#x2044;" horiz-adv-x="160" 
d="M226 706h93l-384 -710h-92z" />
    <glyph glyph-name="dotlessi" unicode="&#x131;" horiz-adv-x="248" 
d="M178 0h-108v481h108v-481z" />
    <glyph glyph-name="Thorn" unicode="&#xde;" horiz-adv-x="690" 
d="M87 0l1 699h110v-116h214c332 0 333 -466 0 -466h-213v-117h-112zM199 480v-263h213c185 0 184 263 0 263h-213z" />
    <glyph glyph-name="germandbls" unicode="&#xdf;" horiz-adv-x="619" 
d="M241 4v95c144 -45 230 15 230 104c0 96 -89 136 -172 136h-57v98h53c54 0 126 17 127 82c2 74 -64 96 -120 96c-68 0 -116 -31 -120 -85c-2 -19 -3 -39 -3 -59v-187c0 -84 1 -203 1 -284h-110v515c0 131 116 196 230 196c120 0 231 -61 231 -192
c0 -59 -39 -114 -108 -129c116 -26 157 -111 157 -184c0 -190 -168 -249 -339 -202z" />
    <glyph glyph-name="eth" unicode="&#xf0;" horiz-adv-x="591" 
d="M294 84c99 0 148 77 148 155c0 77 -49 154 -148 154c-98 0 -148 -77 -148 -154c0 -78 50 -155 148 -155zM252 480c54 6 121 -5 161 -42c-18 53 -80 102 -111 118l-34 -41l-52 34l29 38c-25 15 -61 24 -87 28l20 85c49 -9 91 -22 128 -39l44 55l53 -38l-39 -48
c138 -105 184 -229 184 -379c1 -153 -95 -261 -254 -261c-170 0 -254 123 -254 248c0 113 70 224 212 242z" />
    <glyph glyph-name="thorn" unicode="&#xfe;" horiz-adv-x="637" 
d="M338 89c86 0 155 56 155 157c0 102 -69 157 -155 157c-87 0 -155 -69 -155 -157s69 -157 155 -157zM174 -206h-104v906h103l1 -286c34 57 108 89 174 89c142 -1 249 -90 249 -257c0 -169 -107 -257 -250 -257c-60 0 -134 25 -173 90v-285z" />
    <glyph glyph-name="sterling" unicode="&#xa3;" horiz-adv-x="656" 
d="M223 487c0 -40 10 -79 18 -117h220v-94h-200c7 -56 -11 -134 -75 -175h417v-101h-545v105c75 39 97 100 91 171h-91v94h73c-9 35 -20 76 -20 115c0 145 100 225 251 225c134 0 231 -57 237 -204h-100c-5 76 -60 108 -137 108c-96 0 -139 -55 -139 -127z" />
    <glyph glyph-name="section" unicode="&#xa7;" horiz-adv-x="598" 
d="M54 78l68 70c47 -54 109 -74 176 -73c63 0 132 22 134 65c2 38 -58 53 -133 56c-114 2 -241 41 -237 149c1 38 32 86 90 105c-61 14 -86 63 -85 108c5 120 144 154 246 154c72 0 162 -18 213 -75l-68 -59c-44 34 -89 43 -148 44c-68 1 -133 -21 -134 -61
c-1 -45 74 -58 128 -61c107 -3 248 -31 238 -155c-3 -46 -40 -83 -90 -96c60 -18 92 -67 90 -111c-6 -121 -157 -157 -248 -157c-95 0 -188 31 -240 97zM435 348c4 90 -265 97 -266 0c-3 -87 264 -87 266 0z" />
    <glyph glyph-name="fi" unicode="&#xfb01;" horiz-adv-x="613" 
d="M362 603l33 81c-32 17 -64 26 -98 26c-101 0 -178 -64 -178 -187v-36h-91v-90h91v-397h104v397h147v90h-147v36c0 66 33 97 80 97c21 0 39 -6 59 -17zM545 495h-104v-495h104v495zM429 638c0 84 128 84 128 0c0 -85 -128 -85 -128 0z" />
    <glyph glyph-name="fl" unicode="&#xfb02;" horiz-adv-x="618" 
d="M364 698l-15 -89c-15 7 -30 11 -47 11c-47 0 -80 -31 -80 -97v-36h129v-90h-129v-397h-104v397h-90v90h90v36c0 123 77 187 178 187c23 0 46 -4 68 -12zM440 701h104v-701h-104v701z" />
    <glyph glyph-name="Lslash" unicode="&#x141;" horiz-adv-x="594" 
d="M207 402l109 51v-88l-109 -50v-211h369v-104h-481v261l-76 -35v86l76 36v352h112v-298z" />
    <glyph glyph-name="lslash" unicode="&#x142;" horiz-adv-x="284" 
d="M265 431v-80l-73 -35v-316h-103v267l-66 -30v80l66 31v351h103v-303z" />
    <glyph glyph-name="plus" unicode="+" horiz-adv-x="501" 
d="M44 394h154v154h103v-154h155v-96h-155v-156h-103v156h-154v96z" />
    <glyph glyph-name="asterisk" unicode="*" horiz-adv-x="398" 
d="M321 479l-65 -48l-57 84l-58 -84l-65 48l64 76l-91 20l24 79l89 -33l-4 91h81l-8 -92l95 34l22 -79l-93 -20z" />
    <glyph glyph-name="parenright" unicode=")" horiz-adv-x="345" 
d="M21 701l53 71c157 -104 234 -284 230 -456c-3 -166 -76 -338 -227 -437l-54 78c118 91 175 219 174 372c0 145 -59 283 -176 372z" />
    <glyph glyph-name="parenleft" unicode="(" horiz-adv-x="346" 
d="M272 763l52 -71c-116 -89 -175 -227 -176 -372c0 -153 58 -283 176 -373l-56 -77c-150 99 -224 270 -227 436c-3 173 74 353 231 457z" />
    <glyph glyph-name="quotesingle" unicode="'" horiz-adv-x="232" 
d="M69 700h94v-265h-94v265z" />
    <glyph glyph-name="ampersand" unicode="&#x26;" horiz-adv-x="703" 
d="M320 313c-107 0 -157 -58 -157 -108c0 -78 71 -114 161 -114c56 0 158 26 158 108v114h-162zM587 313v-114c0 -50 18 -93 69 -93v-108c-53 -2 -108 16 -128 91c-43 -66 -118 -100 -209 -100c-145 0 -266 73 -266 217c0 66 50 130 116 152c-62 25 -98 86 -98 147
c1 139 124 204 258 204c119 0 247 -42 248 -192h-105c0 76 -69 97 -146 97c-110 0 -147 -58 -146 -109c0 -80 90 -103 146 -103h320v-89h-59z" />
    <glyph glyph-name="percent" unicode="%" horiz-adv-x="743" 
d="M193 709c210 0 210 -304 0 -304c-209 0 -209 304 0 304zM550 702h99l-452 -702h-100zM192 635c-105 0 -104 -155 2 -155c104 0 103 155 -2 155zM550 297c210 0 210 -304 0 -304c-209 0 -209 304 0 304zM549 223c-105 0 -104 -155 2 -155c104 0 103 155 -2 155z" />
    <glyph glyph-name="numbersign" unicode="#" horiz-adv-x="683" 
d="M252 700h112l-38 -155h132l39 155h111l-38 -155h76v-96h-100l-54 -207h83v-98h-105l-35 -144h-112l35 144h-133l-35 -144h-111l35 144h-77v98h101l53 208h-83v95h106zM442 456h-145l-56 -220h145z" />
    <glyph glyph-name="quotedbl" unicode="&#x22;" horiz-adv-x="404" 
d="M70 699h95v-265h-95v265zM239 699h95v-265h-95v265z" />
    <glyph glyph-name="exclam" unicode="!" horiz-adv-x="272" 
d="M82 702h108v-527h-108v527zM69 61c0 87 132 87 132 0s-132 -87 -132 0z" />
    <glyph glyph-name="comma" unicode="," horiz-adv-x="246" 
d="M186 46c0 -15 -7 -28 -45 -142h-62l22 95c-25 5 -42 22 -42 50c0 76 127 79 127 -3z" />
    <glyph glyph-name="hyphen" unicode="-" horiz-adv-x="494" 
d="M65 243v93h364v-93h-364z" />
    <glyph glyph-name="period" unicode="." horiz-adv-x="243" 
d="M58 55c0 84 127 84 127 0c0 -85 -127 -85 -127 0z" />
    <glyph glyph-name="colon" unicode=":" horiz-adv-x="256" 
d="M65 55c0 83 126 83 126 0s-126 -83 -126 0zM65 347c0 84 126 84 126 0c0 -83 -126 -83 -126 0z" />
    <glyph glyph-name="semicolon" unicode=";" horiz-adv-x="262" 
d="M69 347c0 84 126 84 126 0c0 -83 -126 -83 -126 0zM193 46c0 -15 -6 -28 -44 -142h-63l22 95c-24 5 -41 22 -41 50c0 75 126 80 126 -3z" />
    <glyph glyph-name="less" unicode="&#x3c;" horiz-adv-x="388" 
d="M164 315l167 -156l-67 -72l-226 218v21l226 217l66 -71z" />
    <glyph glyph-name="greater" unicode="&#x3e;" horiz-adv-x="388" 
d="M56 154l168 161l-167 161l67 67l225 -217v-21l-225 -218z" />
    <glyph glyph-name="equal" unicode="=" horiz-adv-x="563" 
d="M70 155v95h423v-95h-423zM70 374v96h423v-96h-423z" />
    <glyph glyph-name="question" unicode="?" horiz-adv-x="606" 
d="M206 65c0 93 140 93 140 0c0 -92 -140 -92 -140 0zM143 494h-109c0 149 130 212 267 212c138 0 270 -57 268 -210c0 -142 -120 -162 -179 -196c-46 -21 -59 -47 -59 -114l-111 1c0 137 51 173 122 203c54 25 112 37 112 107c0 91 -84 111 -155 111s-155 -35 -156 -114z
" />
    <glyph glyph-name="at" unicode="@" horiz-adv-x="914" 
d="M460 576c-173 0 -322 -119 -322 -317c0 -221 157 -307 318 -307c45 0 96 8 145 37l41 -70c-65 -39 -129 -50 -188 -50c-214 0 -407 128 -407 390c0 251 190 403 413 403c238 0 414 -132 414 -396c0 -152 -62 -251 -186 -251c-36 0 -75 27 -75 87
c-28 -62 -106 -92 -158 -92c-143 0 -255 104 -255 247c0 146 113 250 254 250c61 0 128 -36 155 -86l6 60l81 -10v-350c0 -16 7 -24 16 -24c54 0 74 82 74 169c0 223 -125 310 -326 310zM456 415c-97 0 -156 -72 -156 -157c0 -81 57 -156 156 -156c102 0 154 75 154 160
c0 81 -50 153 -154 153z" />
    <glyph glyph-name="bracketleft" unicode="[" horiz-adv-x="341" 
d="M306 -176h-226v886h226v-93h-121v-699h121v-94z" />
    <glyph glyph-name="bracketright" unicode="]" horiz-adv-x="342" 
d="M262 -175h-226v94h121v699h-121v93h226v-886z" />
    <glyph glyph-name="asciicircum" unicode="^" horiz-adv-x="623" 
d="M42 345v5l231 351h70l237 -350l-1 -6h-113l-158 242l-158 -242h-108z" />
    <glyph glyph-name="grave" unicode="`" horiz-adv-x="234" 
d="M2 698v4h124l74 -135v-5h-93z" />
    <glyph glyph-name="braceleft" unicode="{" horiz-adv-x="344" 
d="M306 -63v-81c-147 -25 -201 37 -201 167v133c0 42 -8 92 -72 92v78c64 0 72 51 72 93v138c0 124 61 184 201 158v-79c-70 16 -94 -8 -94 -83v-134c0 -59 3 -111 -70 -132c73 -20 70 -74 70 -131v-138c0 -75 17 -91 94 -81z" />
    <glyph glyph-name="braceright" unicode="}" horiz-adv-x="344" 
d="M38 -148v81c77 -10 94 7 94 82v137c0 57 -3 111 70 131c-73 21 -70 73 -70 132v134c0 75 -24 99 -94 83v80c140 25 201 -35 201 -158v-139c0 -42 8 -93 72 -93v-78c-64 0 -72 -50 -72 -92v-133c0 -130 -54 -192 -201 -167z" />
    <glyph glyph-name="bar" unicode="|" horiz-adv-x="264" 
d="M183 740v-833h-102v833h102z" />
    <glyph glyph-name="asciitilde" unicode="~" horiz-adv-x="619" 
d="M481 367l77 -26c-30 -90 -97 -151 -194 -113c-46 17 -97 64 -139 68c-36 9 -71 -10 -91 -57l-71 28c30 93 100 128 170 115c66 -5 107 -53 157 -70c41 -16 71 2 91 55z" />
    <glyph glyph-name="Euro" unicode="&#x20ac;" horiz-adv-x="613" 
d="M546 108l31 -104c-38 -12 -81 -18 -122 -18c-205 0 -310 104 -345 251h-67v84h55v24c0 10 0 20 1 30h-56v85h69c36 143 145 252 343 252c36 0 72 -5 106 -15l-34 -100c-24 7 -48 9 -72 9c-122 0 -196 -59 -229 -146h239l-19 -85h-244c-1 -9 -1 -20 -1 -29
c0 -8 0 -18 1 -25h228l-17 -84h-189c31 -87 105 -146 231 -146c30 0 61 6 91 17z" />
    <glyph glyph-name="quotesinglbase" unicode="&#x201a;" horiz-adv-x="257" 
d="M33 -122l47 211h109l-73 -211h-83z" />
    <glyph glyph-name="florin" unicode="&#x192;" horiz-adv-x="459" 
d="M146 -2v398h-94v91h94v36c0 123 77 187 178 187c42 0 84 -14 121 -39l-40 -77c-26 17 -49 26 -75 26c-47 0 -80 -31 -80 -97v-36h149v-91h-149v-398c0 -123 -73 -187 -175 -187c-41 0 -71 11 -108 36l39 76c26 -17 37 -22 64 -22c47 0 76 31 76 97z" />
    <glyph glyph-name="quotedblbase" unicode="&#x201e;" horiz-adv-x="420" 
d="M33 -122l47 211h109l-73 -211h-83zM196 -122l47 211h109l-73 -211h-83z" />
    <glyph glyph-name="perthousand" unicode="&#x2030;" horiz-adv-x="1116" 
d="M196 709c210 0 210 -304 0 -304c-209 0 -209 304 0 304zM553 702h99l-452 -702h-100zM195 635c-105 0 -104 -155 2 -155c104 0 103 155 -2 155zM553 297c210 0 210 -304 0 -304c-209 0 -209 304 0 304zM552 223c-105 0 -104 -155 2 -155c104 0 103 155 -2 155zM925 297
c210 0 210 -304 0 -304c-209 0 -209 304 0 304zM924 223c-105 0 -104 -155 2 -155c104 0 103 155 -2 155z" />
    <glyph glyph-name="circumflex" unicode="&#x2c6;" horiz-adv-x="421" 
d="M172 711h60l147 -136v-6h-107l-70 60l-70 -60h-107v6z" />
    <glyph glyph-name="dagger" unicode="&#x2020;" horiz-adv-x="581" 
d="M347 699v-189h200v-95h-200v-535h-113v535h-200v95h200v189h113z" />
    <glyph glyph-name="daggerdbl" unicode="&#x2021;" horiz-adv-x="621" 
d="M366 699v-188h201v-94h-201v-235h201v-94h-201v-215h-111v215h-201v94h201v235h-201v94h201v188h111z" />
    <glyph glyph-name="guilsinglleft" unicode="&#x2039;" horiz-adv-x="330" 
d="M38 297l139 220h111v-1l-138 -219c46 -75 92 -149 138 -222h-111z" />
    <glyph glyph-name="guilsinglright" unicode="&#x203a;" horiz-adv-x="331" 
d="M153 518l139 -220l-139 -222h-110l137 222l-137 219v1h110z" />
    <glyph glyph-name="guillemotleft" unicode="&#xab;" horiz-adv-x="499" 
d="M38 297l139 220h111v-1l-138 -219c46 -75 92 -149 138 -222h-111zM208 297l139 220h110v-1l-137 -219l137 -222h-110z" />
    <glyph glyph-name="guillemotright" unicode="&#xbb;" horiz-adv-x="498" 
d="M320 519l139 -220l-139 -222h-110l137 222l-137 219v1h110zM153 519l139 -220l-139 -222h-111l138 222l-138 219v1h111z" />
    <glyph glyph-name="quoteleft" unicode="&#x2018;" horiz-adv-x="246" 
d="M203 701l-47 -210h-109l73 210h83z" />
    <glyph glyph-name="quoteright" unicode="&#x2019;" horiz-adv-x="242" 
d="M52 489l48 211h108l-73 -211h-83z" />
    <glyph glyph-name="quotedblleft" unicode="&#x201c;" horiz-adv-x="409" 
d="M365 699l-48 -211h-101l66 211h83zM207 699l-52 -211h-105l74 211h83z" />
    <glyph glyph-name="quotedblright" unicode="&#x201d;" horiz-adv-x="396" 
d="M52 491l48 209h101l-66 -209h-83zM211 491l47 209h102l-66 -209h-83z" />
    <glyph glyph-name="bullet" unicode="&#x2022;" horiz-adv-x="393" 
d="M197 193c-66 0 -116 45 -116 112c0 68 50 114 116 114c65 0 114 -46 114 -114c0 -67 -49 -112 -114 -112z" />
    <glyph glyph-name="emdash" unicode="&#x2014;" horiz-adv-x="695" 
d="M65 241v92h565v-92h-565z" />
    <glyph glyph-name="endash" unicode="&#x2013;" horiz-adv-x="596" 
d="M65 241v91h466v-91h-466z" />
    <glyph glyph-name="tilde" unicode="&#x2dc;" horiz-adv-x="363" 
d="M89 607l-61 33c19 56 59 94 118 81c24 -6 45 -21 68 -29s51 -9 62 26l66 -25c-12 -79 -73 -96 -119 -85c-24 6 -46 21 -68 29c-23 8 -50 5 -66 -30z" />
    <glyph glyph-name="trademark" unicode="&#x2122;" horiz-adv-x="811" 
d="M395 700h75l94 -120l96 120h74v-290h-79l3 173c-27 -34 -59 -72 -86 -107h-17l-85 111l3 -177h-78v290zM162 633h-100v67h275v-67h-98v-222h-77v222z" />
    <glyph glyph-name="exclamdown" unicode="&#xa1;" horiz-adv-x="258" 
d="M74 -224h111v526h-111v-526zM198 432c0 -92 -139 -92 -139 0s139 92 139 0z" />
    <glyph glyph-name="cent" unicode="&#xa2;" horiz-adv-x="538" 
d="M482 428l-57 -72c-30 26 -77 42 -114 42c-86 0 -158 -57 -158 -163c0 -101 72 -163 158 -163c40 0 91 24 122 55l65 -75c-40 -38 -90 -63 -143 -71v-71h-97v72c-120 23 -207 107 -207 253c0 137 81 227 207 252v70h97v-69c47 -8 90 -28 127 -60z" />
    <glyph glyph-name="currency" unicode="&#xa4;" horiz-adv-x="613" 
d="M306 199c77 0 117 59 117 119c0 61 -40 120 -117 120c-74 0 -117 -59 -117 -120c0 -60 43 -119 117 -119zM203 136l-59 -59l-78 77l59 58c-39 67 -36 146 3 211l-62 59l78 78l58 -59c31 16 67 24 105 24s73 -9 103 -25l60 60l77 -78l-58 -58c37 -66 38 -148 0 -212
l58 -58l-76 -76l-60 58c-31 -16 -67 -23 -105 -23s-73 8 -103 23z" />
    <glyph glyph-name="copyright" unicode="&#xa9;" horiz-adv-x="825" 
d="M415 717c232 0 361 -166 361 -365c0 -198 -129 -365 -361 -365c-231 0 -366 167 -366 365c0 199 135 365 366 365zM430 159c57 0 103 23 143 62l-57 55c-25 -24 -51 -37 -86 -37c-64 0 -119 43 -119 113c0 72 54 116 119 116c34 0 61 -12 85 -35l57 53
c-39 39 -86 61 -142 61c-112 0 -201 -75 -201 -195c0 -121 89 -193 201 -193zM141 352c0 -157 103 -282 274 -282c172 0 269 125 269 282c0 158 -97 283 -269 283c-171 0 -274 -125 -274 -283z" />
    <glyph glyph-name="ordfeminine" unicode="&#xaa;" horiz-adv-x="493" 
d="M338 652l1 48h80v-323h-79l-2 51c-22 -39 -71 -60 -111 -60c-94 0 -166 60 -166 171s74 168 168 168c44 0 88 -20 109 -55zM236 632c-50 0 -91 -35 -91 -93c0 -57 41 -93 91 -93c121 0 121 186 0 186zM81 227v85h336v-85h-336z" />
    <glyph glyph-name="logicalnot" unicode="&#xac;" horiz-adv-x="528" 
d="M453 377v-220h-89v129h-294v91h383z" />
    <glyph glyph-name="minus" unicode="&#x2212;" horiz-adv-x="527" 
d="M70 260v93h387v-93h-387z" />
    <glyph glyph-name="registered" unicode="&#xae;" horiz-adv-x="823" 
d="M411 715c232 0 362 -167 362 -365s-130 -365 -362 -365c-231 0 -361 167 -361 365s130 365 361 365zM142 350c1 -158 98 -282 269 -282c172 0 269 124 269 282s-97 283 -269 283c-171 0 -268 -125 -269 -283zM588 184l-98 118c138 27 116 235 -46 235h-174v-371h84v122
h47l96 -122h91v18zM354 461h90c69 0 69 -101 -1 -101h-89v101z" />
    <glyph glyph-name="degree" unicode="&#xb0;" horiz-adv-x="345" 
d="M172 659c-78 0 -80 -113 0 -113c78 0 77 113 0 113zM173 723c164 0 166 -240 0 -240c-170 0 -165 240 0 240z" />
    <glyph glyph-name="plusminus" unicode="&#xb1;" horiz-adv-x="534" 
d="M67 326v97h150v152h99v-152h151v-97h-151v-152h-99v152h-150zM69 26v95h396v-95h-396z" />
    <glyph glyph-name="threesuperior" unicode="&#xb3;" horiz-adv-x="372" 
d="M184 561h-56v61h52c38 0 67 7 68 44c0 15 -15 43 -67 43c-32 0 -66 -7 -72 -43h-69c0 78 74 109 142 109c69 0 144 -34 144 -110c0 -32 -18 -64 -50 -74c38 -11 59 -46 59 -76c0 -90 -84 -118 -155 -118c-69 0 -146 31 -147 113h81c6 -34 40 -42 69 -42c31 0 70 11 70 45
c0 23 -16 48 -69 48z" />
    <glyph glyph-name="twosuperior" unicode="&#xb2;" horiz-adv-x="366" 
d="M117 663h-77c1 80 73 112 140 112c82 0 148 -31 148 -115c0 -162 -211 -75 -211 -164v-16h207v-76h-286v92c0 149 212 77 212 164c0 35 -28 47 -69 47c-33 0 -63 -11 -64 -44z" />
    <glyph glyph-name="mu" unicode="&#xb5;" horiz-adv-x="612" 
d="M557 0h-100l-10 71c-56 -99 -222 -108 -267 -1v-289h-103v714h109v-271c0 -181 260 -185 260 13v258h111v-495z" />
    <glyph glyph-name="mu" unicode="&#x3bc;" horiz-adv-x="612" 
d="M557 0h-100l-10 71c-56 -99 -222 -108 -267 -1v-289h-103v714h109v-271c0 -181 260 -185 260 13v258h111v-495z" />
    <glyph glyph-name="paragraph" unicode="&#xb6;" horiz-adv-x="834" 
d="M384 596v-810h-111v393c-160 12 -240 137 -240 260c1 130 91 261 267 261h497v-104h-96v-810h-111v810h-206z" />
    <glyph glyph-name="periodcentered" unicode="&#xb7;" horiz-adv-x="262" 
d="M64 278c0 88 134 88 134 0s-134 -88 -134 0z" />
    <glyph glyph-name="cedilla" unicode="&#xb8;" horiz-adv-x="296" 
d="M30 -165l47 40c15 -22 42 -33 68 -34c26 0 49 9 56 31c11 38 -41 65 -88 40l-23 19l29 92h76l-15 -52c88 -2 111 -62 100 -112c-13 -61 -72 -90 -129 -89c-48 1 -96 23 -121 65z" />
    <glyph glyph-name="onesuperior" unicode="&#xb9;" horiz-adv-x="266" 
d="M36 404v68h63v209l-54 -13v67l132 33v-296h64v-68h-205z" />
    <glyph glyph-name="ordmasculine" unicode="&#xba;" horiz-adv-x="475" 
d="M80 236v77h317v-77h-317zM237 368c-98 0 -174 60 -174 171c0 110 75 168 174 168s175 -58 175 -168c0 -111 -76 -171 -175 -171zM237 446c51 0 91 36 91 93c0 58 -40 93 -91 93c-50 0 -90 -35 -90 -93c0 -57 40 -93 90 -93z" />
    <glyph glyph-name="questiondown" unicode="&#xbf;" horiz-adv-x="601" 
d="M397 443c0 -91 -139 -91 -139 1s140 92 139 -1zM570 14c-38 0 -76 1 -114 1c-2 -79 -82 -113 -153 -113c-70 0 -154 19 -154 109c0 68 59 83 113 109c71 30 121 67 121 206c-37 0 -74 1 -111 1v-23c-3 -46 -15 -71 -43 -89c-56 -36 -195 -56 -195 -202
c-2 -154 130 -210 268 -210s267 62 268 211z" />
    <glyph glyph-name="divide" unicode="&#xf7;" horiz-adv-x="552" 
d="M58 378v-94h436v94h-436zM215 147c0 83 125 83 125 0c0 -82 -125 -82 -125 0zM215 503c0 82 125 82 125 0s-125 -82 -125 0z" />
    <glyph glyph-name="multiply" unicode="&#xd7;" horiz-adv-x="458" 
d="M129 488l102 -106l104 105l60 -59l-106 -108l112 -112l-65 -62l-110 111l-104 -106l-62 62l105 104l-105 104z" />
    <glyph glyph-name="caron" unicode="&#x2c7;" horiz-adv-x="404" 
d="M21 694v6h106l72 -62l75 62h103v-6l-149 -137h-61z" />
    <glyph glyph-name="ogonek" unicode="&#x2db;" horiz-adv-x="407" 
d="M255 -135l50 -39c-24 -41 -69 -62 -116 -64c-64 -2 -120 25 -135 85c-14 54 14 155 178 130l15 -47c-54 12 -131 -14 -113 -65c6 -18 28 -34 61 -30c18 2 41 10 60 30z" />
    <glyph glyph-name="hungarumlaut" unicode="&#x2dd;" horiz-adv-x="396" 
d="M373 701v-3l-101 -131h-87v1l84 133h104zM205 702v-4l-100 -130h-88v1l84 133h104z" />
    <glyph glyph-name="ring" unicode="&#x2da;" horiz-adv-x="329" 
d="M35 600c0 76 59 115 125 115c65 0 128 -39 128 -115s-59 -117 -127 -117s-126 42 -126 117zM160 654c-78 0 -77 -106 0 -106c80 0 77 106 0 106z" />
    <glyph glyph-name="dotaccent" unicode="&#x2d9;" horiz-adv-x="206" 
d="M22 647c0 84 128 84 128 0c0 -85 -128 -85 -128 0z" />
    <glyph glyph-name="breve" unicode="&#x2d8;" horiz-adv-x="333" 
d="M235 698h84c0 -89 -65 -139 -145 -139c-78 0 -152 48 -146 139h84c0 -37 24 -62 62 -62c37 0 61 25 61 62z" />
    <glyph glyph-name="B" unicode="B" horiz-adv-x="716" 
d="M199 310v-206h210c62 0 148 20 148 97c0 75 -83 109 -147 109h-211zM199 599v-189h211c84 0 126 33 126 88c0 49 -43 101 -127 101h-210zM88 700h321c133 0 238 -61 238 -200c0 -59 -31 -112 -97 -139c84 -25 119 -108 119 -161c0 -153 -122 -200 -260 -200h-321v700z
" />
    <glyph glyph-name="A" unicode="A" horiz-adv-x="768" 
d="M640 0l-67 147h-379l-66 -147h-119l314 700h122l314 -700h-119zM532 249l-148 333l-148 -333h296z" />
    <glyph glyph-name="C" unicode="C" horiz-adv-x="703" 
d="M600 167l77 -77c-72 -71 -165 -104 -263 -104c-254 0 -368 175 -369 359s119 367 369 367c94 0 185 -35 256 -106l-75 -72c-50 49 -116 72 -181 72c-178 0 -259 -131 -258 -260c1 -128 77 -255 258 -255c65 0 137 27 186 76z" />
    <glyph glyph-name="D" unicode="D" horiz-adv-x="750" 
d="M88 700h265c239 0 348 -171 351 -344c4 -177 -106 -356 -351 -356h-265v700zM199 593v-485h154c171 0 243 126 240 249c-3 118 -75 236 -240 236h-154z" />
    <glyph glyph-name="E" unicode="E" horiz-adv-x="661" 
d="M605 110v-110h-517v700h514v-109h-402v-189h386v-104h-386v-188h405z" />
    <glyph glyph-name="F" unicode="F" horiz-adv-x="626" 
d="M200 0h-112v699h495v-109h-383v-213h364v-104h-364v-273z" />
    <glyph glyph-name="G" unicode="G" horiz-adv-x="743" 
d="M672 611l-70 -72c-50 49 -124 75 -189 75c-164 0 -259 -123 -258 -271c0 -128 76 -252 258 -252c60 0 115 15 171 62v142h-195v100h299v-287c-70 -77 -157 -122 -275 -122c-257 0 -368 171 -368 357c0 202 129 374 368 374c93 0 187 -35 259 -106z" />
    <glyph glyph-name="H" unicode="H" horiz-adv-x="769" 
d="M681 0h-111v291h-370v-291h-112v700h112v-305h370v305h111v-700z" />
    <glyph glyph-name="I" unicode="I" horiz-adv-x="287" 
d="M199 0h-111v700h111v-700z" />
    <glyph glyph-name="J" unicode="J" horiz-adv-x="705" 
d="M290 700h337v-410c0 -179 -116 -303 -300 -303c-174 0 -299 108 -299 297h110c0 -123 67 -192 189 -192s188 82 188 198v306h-225v104z" />
    <glyph glyph-name="K" unicode="K" horiz-adv-x="648" 
d="M624 700v-4l-321 -334l349 -355v-7h-140l-312 319v-319h-112v700h112v-302l285 302h139z" />
    <glyph glyph-name="L" unicode="L" horiz-adv-x="587" 
d="M88 700h112v-596h369v-104h-481v700z" />
    <glyph glyph-name="M" unicode="M" horiz-adv-x="897" 
d="M697 -1v537l-238 -331h-24l-235 331v-537h-112v700h130l231 -328l230 328h130v-700h-112z" />
    <glyph glyph-name="N" unicode="N" horiz-adv-x="771" 
d="M174 700l397 -498v498h112v-700h-85l-397 494v-494h-113v700h86z" />
    <glyph glyph-name="O" unicode="O" horiz-adv-x="806" 
d="M405 713c239 -1 356 -177 356 -366s-115 -362 -358 -362s-358 177 -358 361c0 213 149 367 360 367zM156 345c2 -124 74 -257 247 -257c174 0 247 123 247 257c0 129 -74 263 -245 266c-162 0 -249 -113 -249 -266z" />
    <glyph glyph-name="P" unicode="P" horiz-adv-x="691" 
d="M200 598v-280h212c185 0 184 280 0 280h-212zM412 215h-212v-215h-112v700c107 0 217 1 324 1c334 0 335 -484 0 -486z" />
    <glyph glyph-name="Q" unicode="Q" horiz-adv-x="806" 
d="M403 715c243 0 355 -176 357 -358c1 -82 -22 -166 -69 -231l84 -83l-78 -79l-86 84c-54 -38 -124 -59 -208 -59c-247 0 -359 178 -359 363c0 184 116 363 359 363zM403 613c-169 0 -250 -132 -248 -263c1 -128 83 -257 248 -257c168 0 250 136 246 267
c-3 126 -73 253 -246 253z" />
    <glyph glyph-name="R" unicode="R" horiz-adv-x="721" 
d="M680 20l12 -20h-131l-213 242h-148v-242h-112v701c109 0 217 -1 326 -1c162 0 247 -111 247 -229c0 -100 -52 -198 -190 -218zM414 598h-214v-254h213c93 0 134 59 134 125c0 63 -41 129 -133 129z" />
    <glyph glyph-name="S" unicode="S" horiz-adv-x="660" 
d="M591 602l-85 -57c-33 48 -100 77 -173 78c-94 0 -162 -39 -162 -106c0 -68 78 -87 170 -100c144 -20 281 -60 281 -217c-1 -157 -144 -216 -290 -216c-134 0 -237 41 -301 159l84 56c50 -85 137 -115 218 -115c84 0 177 28 177 116c0 76 -81 102 -179 115
c-139 19 -271 54 -271 204c-1 145 144 201 270 201c101 0 202 -24 261 -118z" />
    <glyph glyph-name="T" unicode="T" horiz-adv-x="606" 
d="M247 0v599h-230v101h572v-101h-229v-599h-113z" />
    <glyph glyph-name="U" unicode="U" horiz-adv-x="752" 
d="M562 699h111v-409c0 -206 -136 -309 -305 -303c-156 4 -289 104 -289 303v409h111v-409c0 -127 74 -196 178 -200c112 -6 194 67 194 200v409z" />
    <glyph glyph-name="V" unicode="V" horiz-adv-x="721" 
d="M709 700l-290 -703h-117l-291 703h126l223 -569l224 569h125z" />
    <glyph glyph-name="W" unicode="W" horiz-adv-x="1074" 
d="M1056 700l-250 -701h-99l-93 247l-77 235l-77 -236l-92 -246h-98l-254 701h125l178 -539l181 539h72l185 -539l174 539h125z" />
    <glyph glyph-name="X" unicode="X" horiz-adv-x="653" 
d="M327 429l184 271h123v-5l-237 -340l247 -352v-3h-127l-190 277l-191 -277h-127v3l246 352l-236 340v5h123z" />
    <glyph glyph-name="Y" unicode="Y" horiz-adv-x="686" 
d="M149 700l193 -309l199 309h135v-5l-278 -408v-287h-112v287l-270 408v5h133z" />
    <glyph glyph-name="Z" unicode="Z" 
d="M58 597v103h511v-51l-385 -542h385v-107h-543v63l378 534h-346z" />
    <glyph glyph-name="a" unicode="a" horiz-adv-x="636" 
d="M463 415l3 78h100v-493h-98l-5 80c-33 -63 -109 -93 -170 -93c-144 -1 -253 92 -253 260c0 165 113 257 255 257c70 0 137 -33 168 -89zM303 410c-88 0 -160 -62 -160 -163c0 -102 72 -164 160 -164c213 0 213 327 0 327z" />
    <glyph glyph-name="b" unicode="b" horiz-adv-x="636" 
d="M337 407c-86 0 -158 -65 -158 -160c0 -97 71 -161 158 -161c86 0 156 62 156 161c0 101 -70 160 -156 160zM70 699h103v-283c32 58 113 88 173 88c142 0 250 -89 250 -257c0 -163 -109 -257 -252 -257c-66 0 -132 25 -171 88l-6 -78h-97v699z" />
    <glyph glyph-name="c" unicode="c" horiz-adv-x="509" 
d="M417 133l70 -69c-55 -54 -116 -77 -187 -77c-142 0 -260 89 -260 259s117 259 260 259c68 0 125 -21 178 -73l-66 -69c-31 30 -72 44 -111 44c-89 0 -158 -63 -158 -161c0 -104 72 -159 157 -159c42 0 85 13 117 46z" />
    <glyph glyph-name="d" unicode="d" horiz-adv-x="636" 
d="M299 407c-87 0 -156 -59 -156 -160c0 -99 69 -161 156 -161c86 0 157 64 157 161c0 95 -71 160 -157 160zM463 699h103v-699h-97l-6 78c-39 -63 -105 -88 -171 -88c-143 0 -252 94 -252 257c0 168 107 257 250 257c60 0 141 -30 173 -88v283z" />
    <glyph glyph-name="e" unicode="e" horiz-adv-x="582" 
d="M547 208h-400c9 -75 71 -124 161 -124c50 0 113 19 143 53l67 -65c-51 -56 -136 -84 -212 -84c-162 0 -266 103 -266 261c0 150 105 257 259 257c159 0 267 -97 248 -298zM149 295h299c-6 78 -63 119 -146 119c-75 0 -137 -41 -153 -119z" />
    <glyph glyph-name="f" unicode="f" horiz-adv-x="390" 
d="M226 0h-104v396h-94v91h94v36c0 123 77 187 178 187c42 0 84 -14 121 -39l-40 -77c-26 17 -49 26 -75 26c-47 0 -80 -31 -80 -97v-36h149v-91h-149v-396z" />
    <glyph glyph-name="g" unicode="g" horiz-adv-x="614" 
d="M440 474l54 66l75 -58l-59 -69c41 -48 60 -92 60 -153c0 -87 -43 -158 -131 -192c101 -34 130 -102 130 -161c0 -134 -132 -201 -264 -201c-161 0 -264 82 -260 219h103c-3 -77 75 -118 157 -119c76 0 157 31 157 101c0 69 -63 107 -155 107c-160 0 -267 92 -267 246
c0 165 133 248 267 248c41 0 98 -10 133 -34zM307 412c-84 0 -163 -49 -163 -152c0 -98 74 -151 163 -151c91 0 160 62 160 151c0 97 -75 152 -160 152z" />
    <glyph glyph-name="h" unicode="h" horiz-adv-x="599" 
d="M70 700h103v-280c43 60 101 80 160 80c139 0 203 -93 203 -234v-266h-103v265c0 93 -48 139 -124 139c-80 0 -136 -66 -136 -147v-257h-103v700z" />
    <glyph glyph-name="i" unicode="i" horiz-adv-x="243" 
d="M173 495h-103v-495h103v495zM58 638c0 84 128 84 128 0c0 -85 -128 -85 -128 0z" />
    <glyph glyph-name="j" unicode="j" horiz-adv-x="243" 
d="M173 495h-103v-553c0 -57 -8 -91 -57 -92c-20 -1 -42 5 -63 15l-37 -81c34 -22 69 -31 104 -31c111 0 156 65 156 189v553zM58 640c0 84 128 84 128 0c0 -85 -128 -85 -128 0z" />
    <glyph glyph-name="k" unicode="k" horiz-adv-x="514" 
d="M70 699h104v-408l183 202h125v-6l-213 -226l242 -254v-7h-126l-211 228v-228h-104v699z" />
    <glyph glyph-name="l" unicode="l" horiz-adv-x="251" 
d="M74 699h103v-699h-103v699z" />
    <glyph glyph-name="m" unicode="m" horiz-adv-x="907" 
d="M511 0h-104v271c0 73 -42 134 -115 134s-119 -61 -119 -134v-271h-103v494h96l7 -66c28 54 86 74 138 74c63 0 127 -26 155 -99c40 73 102 98 169 98c136 0 209 -86 209 -228v-273h-104v273c0 73 -36 131 -109 131s-120 -60 -120 -133v-271z" />
    <glyph glyph-name="n" unicode="n" horiz-adv-x="610" 
d="M548 0h-104v264c0 85 -48 142 -133 142c-82 0 -138 -67 -138 -148v-258h-103v494h94l6 -72c47 53 102 79 166 79c120 0 212 -85 212 -236v-265z" />
    <glyph glyph-name="o" unicode="o" horiz-adv-x="588" 
d="M293 503c152 0 256 -112 256 -257c0 -146 -101 -256 -256 -256c-154 0 -254 110 -254 256c0 145 101 257 254 257zM293 408c-94 0 -151 -75 -151 -162c0 -88 57 -160 151 -160c95 0 152 72 152 160c0 87 -62 162 -152 162z" />
    <glyph glyph-name="p" unicode="p" horiz-adv-x="636" 
d="M337 89c90 0 156 65 156 157c0 93 -62 157 -156 157c-95 0 -155 -69 -155 -157s65 -157 155 -157zM173 -229h-103v722h97l6 -80c38 60 108 90 174 90c147 -1 249 -108 249 -257s-96 -257 -249 -257c-60 0 -137 22 -174 83v-301z" />
    <glyph glyph-name="q" unicode="q" horiz-adv-x="637" 
d="M299 89c91 0 155 69 155 157s-60 157 -155 157c-94 0 -155 -64 -155 -157c0 -92 65 -157 155 -157zM567 -229h-103v301c-37 -61 -114 -83 -174 -83c-154 0 -250 108 -250 257s102 256 250 257c66 0 135 -30 173 -90l6 80h98v-722z" />
    <glyph glyph-name="r" unicode="r" horiz-adv-x="440" 
d="M70 493h96l7 -65c36 63 92 76 145 76c48 0 94 -17 122 -42l-47 -90c-25 20 -49 30 -87 30c-71 0 -133 -44 -133 -135v-267h-103v493z" />
    <glyph glyph-name="s" unicode="s" horiz-adv-x="499" 
d="M443 440l-58 -68c-39 36 -81 46 -130 46c-63 1 -105 -20 -105 -59c1 -41 44 -57 107 -63c91 -8 210 -28 209 -155c-1 -92 -82 -156 -210 -156c-80 0 -160 18 -225 91l54 73c46 -51 115 -72 173 -73c49 0 104 18 105 64c1 44 -41 61 -114 68c-93 9 -200 39 -201 148
c0 109 113 150 205 150c76 0 135 -17 190 -66z" />
    <glyph glyph-name="t" unicode="t" horiz-adv-x="407" 
d="M125 624l104 11v-143h144v-89h-145v-235c0 -52 23 -81 71 -81c20 0 43 7 63 17l30 -88c-34 -15 -64 -22 -99 -22c-107 -3 -168 58 -168 174v235h-95v89h95v132z" />
    <glyph glyph-name="u" unicode="u" 
d="M62 493h103v-264c0 -84 48 -142 134 -142c81 0 137 67 137 149v257h103v-494h-93l-6 73c-48 -55 -101 -80 -170 -80c-121 0 -208 87 -208 236v265z" />
    <glyph glyph-name="v" unicode="v" horiz-adv-x="568" 
d="M437 494h113l-209 -496h-113l-210 496h114l66 -159l87 -229l78 209z" />
    <glyph glyph-name="w" unicode="w" horiz-adv-x="848" 
d="M380 494h89l118 -388l122 388h115l-173 -496h-120l-58 164l-48 172l-49 -172l-58 -164h-120l-174 496h116l122 -388z" />
    <glyph glyph-name="y" unicode="y" horiz-adv-x="558" 
d="M427 493h115l-311 -722h-114l102 236l-197 486h120l85 -233l49 -140l53 138z" />
    <glyph glyph-name="z" unicode="z" horiz-adv-x="477" 
d="M47 493h389v-48l-248 -344h250v-101h-408v42l255 357h-238v94z" />
    <glyph glyph-name="zero" unicode="0" horiz-adv-x="700" 
d="M169 411v-122c0 -266 362 -266 362 0v122c0 262 -362 265 -362 0zM57 289v122c0 406 586 405 586 0v-122c0 -405 -586 -406 -586 0z" />
    <glyph glyph-name="one" unicode="1" horiz-adv-x="435" 
d="M51 0v93h126v470l-120 -34v98l231 73v-607h122v-93h-359z" />
    <glyph glyph-name="two" unicode="2" horiz-adv-x="675" 
d="M173 501h-112c10 161 153 208 285 208c130 0 271 -52 271 -213c0 -169 -136 -212 -277 -212c-69 0 -174 -17 -174 -107v-72h451v-105h-559v177c0 160 145 206 281 206c63 0 168 20 168 111c0 88 -76 115 -161 118c-81 0 -171 -29 -173 -111z" />
    <glyph glyph-name="three" unicode="3" horiz-adv-x="674" 
d="M338 313h-111v92h104c88 0 162 33 163 99c0 48 -41 106 -160 106c-68 0 -162 -22 -162 -100h-111c0 150 148 200 274 200c140 0 269 -69 270 -206c0 -68 -43 -127 -109 -145c82 -23 125 -80 125 -153c0 -156 -144 -216 -289 -216c-130 0 -282 51 -283 208h113
c0 -85 106 -107 171 -107c87 0 171 38 171 114c0 50 -35 108 -166 108z" />
    <glyph glyph-name="four" unicode="4" horiz-adv-x="662" 
d="M406 699h129v-456h83v-104h-83v-139h-111v139h-388l-14 101zM147 243h277v326z" />
    <glyph glyph-name="five" unicode="5" horiz-adv-x="655" 
d="M572 699v-105h-393v-148h158c159 0 274 -72 274 -223c0 -148 -122 -230 -274 -230c-147 0 -282 51 -283 213h112c0 -88 97 -108 170 -108c85 0 163 40 163 125c1 80 -69 119 -162 119h-267v357h502z" />
    <glyph glyph-name="six" unicode="6" horiz-adv-x="693" 
d="M180 493v-127c38 56 115 80 178 80c139 0 285 -59 285 -228c0 -156 -147 -228 -286 -228c-141 0 -288 72 -288 230v272c0 150 143 220 284 220c149 0 278 -60 280 -199h-110c-2 67 -82 102 -167 102c-86 0 -176 -37 -176 -122zM357 91c87 0 174 37 174 127
c0 86 -82 130 -173 130s-178 -43 -177 -130c0 -89 86 -127 176 -127z" />
    <glyph glyph-name="seven" unicode="7" horiz-adv-x="562" 
d="M220 0h-129l309 593h-369v107h513l7 -64z" />
    <glyph glyph-name="eight" unicode="8" horiz-adv-x="703" 
d="M351 317c-82 0 -181 -33 -182 -114c0 -70 81 -116 182 -116s182 45 182 116c-1 81 -96 114 -182 114zM52 204c1 65 46 131 120 157c-65 30 -102 81 -102 144c0 142 136 208 280 208s285 -66 285 -208c0 -58 -38 -114 -106 -140c75 -26 120 -97 121 -161
c2 -160 -143 -220 -300 -220c-151 0 -300 59 -298 220zM184 508c2 -73 88 -108 167 -108c82 0 166 35 167 108c2 72 -80 111 -168 111c-95 0 -167 -46 -166 -111z" />
    <glyph glyph-name="nine" unicode="9" horiz-adv-x="694" 
d="M515 209v127c-37 -56 -116 -81 -179 -81c-139 0 -285 60 -285 229c0 156 147 228 286 228c140 0 288 -73 288 -230v-272c0 -150 -142 -220 -283 -220c-149 0 -283 59 -285 199h113c1 -67 86 -102 171 -102c73 0 174 42 174 122zM337 611c-88 0 -175 -37 -175 -127
c0 -89 83 -130 174 -130s177 43 177 130c-1 89 -87 127 -176 127z" />
    <glyph glyph-name="_0004" horiz-adv-x="0" 
 />
    <glyph glyph-name="x" unicode="x" horiz-adv-x="514" 
d="M257 317l109 176h125v-3l-166 -239l177 -248v-3h-124l-121 179l-121 -179h-124v3l177 248l-166 239v3h124z" />
    <glyph glyph-name="zcaron" unicode="&#x17e;" horiz-adv-x="477" 
d="M436 493h-389v-94h238l-255 -357v-42h408v101h-250l248 344v48zM89 694v6h95l65 -57l68 57h93v-6l-135 -124h-54z" />
    <glyph glyph-name="dieresis" unicode="&#xa8;" horiz-adv-x="455" 
d="M53 661c0 82 124 82 124 0s-124 -82 -124 0zM293 661c0 82 125 82 125 0s-125 -82 -125 0z" />
    <glyph glyph-name="acute" unicode="&#xb4;" horiz-adv-x="224" 
d="M205 699v-4l-105 -133h-93v5l74 132h124z" />
    <glyph glyph-name="dollar" unicode="$" horiz-adv-x="680" 
d="M609 594l-90 -48c-29 50 -103 78 -174 79c-83 0 -173 -32 -172 -110c0 -72 83 -86 176 -99c143 -20 295 -55 295 -215c0 -135 -120 -204 -242 -212v-100h-106v96c-102 8 -215 53 -261 156l95 50c31 -69 129 -106 212 -106c89 0 186 25 186 116c0 76 -91 99 -190 113
c-139 18 -276 43 -277 200c-1 131 120 190 235 202v90h107v-90c86 -11 159 -37 206 -122z" />
    <glyph glyph-name="ellipsis" unicode="&#x2026;" horiz-adv-x="671" 
d="M58 55c0 84 127 84 127 0c0 -85 -127 -85 -127 0zM272 55c0 84 128 84 128 0c0 -85 -128 -85 -128 0zM486 55c0 84 127 84 127 0c0 -85 -127 -85 -127 0z" />
    <glyph glyph-name="Scaron" unicode="&#x160;" horiz-adv-x="660" 
d="M506 545l85 57c-59 94 -160 118 -261 118c-126 0 -271 -56 -270 -201c0 -150 132 -185 271 -204c98 -13 179 -39 179 -115c0 -88 -93 -116 -177 -116c-81 0 -168 30 -218 115l-84 -56c64 -118 167 -159 301 -159c146 0 289 59 290 216c0 157 -137 197 -281 217
c-92 13 -170 32 -170 100c0 67 68 106 162 106c73 -1 140 -30 173 -78zM159 910v6h106l72 -62l75 62h103v-6l-149 -137h-61z" />
    <glyph glyph-name="OE" unicode="&#x152;" horiz-adv-x="1008" 
d="M954 101v-101h-449c-31 -9 -66 -13 -103 -13c-240 0 -356 165 -356 366c0 202 118 359 356 359c38 0 75 -7 104 -12h444v-100h-342v-196h326v-100h-326v-203h346zM403 618c-165 0 -245 -121 -245 -267c0 -129 74 -257 224 -266c44 -4 84 0 123 13v502
c-29 12 -63 18 -102 18z" />
    <glyph glyph-name="scaron" unicode="&#x161;" horiz-adv-x="499" 
d="M385 372l58 68c-55 49 -114 66 -190 66c-92 0 -205 -41 -205 -150c1 -109 108 -139 201 -148c73 -7 115 -24 114 -68c-1 -46 -56 -64 -105 -64c-58 1 -127 22 -173 73l-54 -73c65 -73 145 -91 225 -91c128 0 209 64 210 156c1 127 -118 147 -209 155
c-63 6 -106 22 -107 63c0 39 42 60 105 59c49 0 91 -10 130 -46zM96 690v6h96l65 -57l68 57h93v-6l-135 -124h-55z" />
    <glyph glyph-name="oe" unicode="&#x153;" horiz-adv-x="971" 
d="M936 208h-396c8 -75 67 -124 157 -124c50 0 112 19 143 53l67 -65c-51 -56 -135 -84 -211 -84c-95 0 -170 41 -208 113c-42 -72 -106 -111 -195 -111c-154 0 -254 110 -254 256c0 145 101 258 254 258c86 0 162 -41 200 -112c31 65 105 113 196 113
c158 0 266 -96 247 -297zM293 408c-94 0 -151 -75 -151 -162c0 -88 57 -160 151 -160c95 0 151 72 151 160c0 87 -61 162 -151 162zM539 295h298c-6 78 -63 119 -145 119c-75 0 -137 -41 -153 -119z" />
    <glyph glyph-name="Ydieresis" unicode="&#x178;" horiz-adv-x="686" 
d="M342 391l-193 309h-133v-5l270 -408v-287h112v287l278 408v5h-135zM166 831c0 78 119 78 119 0s-119 -78 -119 0zM395 831c0 78 119 78 119 0s-119 -78 -119 0z" />
    <glyph glyph-name="yen" unicode="&#xa5;" horiz-adv-x="719" 
d="M145 129v82h155v54h-155v83h114l-229 347v5h130l196 -309l205 309h129v-5l-236 -347h113v-83h-155v-54h155v-82h-155v-129h-112v129h-155z" />
    <glyph glyph-name="onequarter" unicode="&#xbc;" horiz-adv-x="774" 
d="M587 364h102v-227h49v-69h-49v-68h-77v68h-192l-4 66zM612 137v152l-113 -152h113zM229 -1h-92l383 707h93zM47 337v68h62v209l-53 -12v67l131 33v-297h65v-68h-205z" />
    <glyph glyph-name="threequarters" unicode="&#xbe;" horiz-adv-x="800" 
d="M622 364h102v-227h42v-69h-42v-68h-77v68h-192l-4 66zM647 137v152l-113 -152h113zM184 506h-55v59h51c37 0 65 6 66 41c0 15 -15 43 -66 43c-31 0 -64 -7 -69 -42h-67c0 75 72 106 137 106c68 0 140 -34 141 -107c0 -31 -18 -62 -50 -71c37 -11 57 -45 57 -74
c0 -87 -81 -114 -149 -114c-67 0 -141 29 -142 109h78c6 -33 38 -41 66 -41c31 0 69 11 69 44c0 22 -16 47 -67 47zM274 -4h-92l383 710h93z" />
    <glyph glyph-name="onehalf" unicode="&#xbd;" horiz-adv-x="804" 
d="M556 256h-78c1 80 73 112 140 112c83 0 148 -31 148 -115c0 -159 -209 -73 -209 -164v-19h203v-73h-284v92c0 149 212 77 212 164c0 35 -28 47 -68 47c-33 0 -64 -11 -64 -44zM227 -2h-92l382 708h93zM45 338v68h62v209l-53 -13v67l131 33v-296h65v-68h-205z" />
    <glyph glyph-name="Zcaron" unicode="&#x17d;" 
d="M58 700v-103h346l-378 -534v-63h543v107h-385l385 542v51h-511zM145 910v6h106l72 -62l75 62h103v-6l-149 -137h-61z" />
    <glyph glyph-name="Agrave" unicode="&#xc0;" horiz-adv-x="768" 
d="M640 0l-67 147h-379l-66 -147h-119l314 700h122l314 -700h-119zM532 249l-148 333l-148 -333h296zM232 910v4h124l74 -135v-5h-93z" />
    <glyph glyph-name="Aacute" unicode="&#xc1;" horiz-adv-x="768" 
d="M573 147l67 -147h119l-314 700h-122l-314 -700h119l66 147h379zM384 582l148 -333h-296zM528 914v-4l-105 -133h-93v5l74 132h124z" />
    <glyph glyph-name="Acircumflex" unicode="&#xc2;" horiz-adv-x="768" 
d="M573 147l67 -147h119l-314 700h-122l-314 -700h119l66 147h379zM384 582l148 -333h-296zM357 913h60l147 -136v-6h-107l-70 60l-70 -60h-107v6z" />
    <glyph glyph-name="Atilde" unicode="&#xc3;" horiz-adv-x="768" 
d="M640 0l-67 147h-379l-66 -147h-119l314 700h122l314 -700h-119zM532 249l-148 333l-148 -333h296zM288 769l-61 33c19 56 59 94 118 81c24 -6 45 -21 68 -29s51 -9 62 26l66 -25c-12 -79 -73 -96 -119 -85c-24 6 -46 21 -68 29c-23 8 -50 5 -66 -30z" />
    <glyph glyph-name="Adieresis" unicode="&#xc4;" horiz-adv-x="768" 
d="M573 147l67 -147h119l-314 700h-122l-314 -700h119l66 147h379zM384 582l148 -333h-296zM201 832c0 82 124 82 124 0s-124 -82 -124 0zM441 832c0 82 125 82 125 0s-125 -82 -125 0z" />
    <glyph glyph-name="Aring" unicode="&#xc5;" horiz-adv-x="768" 
d="M258 795c0 76 63 115 126 115c62 0 126 -39 126 -115c0 -49 -26 -83 -63 -100l312 -695h-122l-66 147h-375l-66 -147h-121l311 695c-37 17 -62 51 -62 100zM239 247h289l-76 174l-68 174l-70 -177zM383 849c-78 0 -77 -106 0 -106c80 0 77 106 0 106z" />
    <glyph glyph-name="AE" unicode="&#xc6;" horiz-adv-x="913" 
d="M859 101v-101h-421v168h-231l-103 -168h-126l440 700h436v-98h-314v-200h300v-98h-300v-203h319zM270 268h168v139l7 160h-1z" />
    <glyph glyph-name="Ccedilla" unicode="&#xc7;" horiz-adv-x="704" 
d="M267 -197l47 40c28 -42 111 -45 124 -3c11 35 -39 64 -88 41l-23 18l28 91c-212 24 -308 186 -309 355c-1 184 119 367 369 367c94 0 185 -35 256 -106l-75 -72c-50 49 -116 72 -181 72c-178 0 -259 -131 -258 -260c1 -128 77 -255 258 -255c65 0 137 27 186 76l77 -77
c-68 -67 -155 -101 -248 -104l-13 -47c89 -2 111 -62 101 -112c-10 -46 -50 -75 -92 -84c-57 -13 -126 6 -159 60z" />
    <glyph glyph-name="Edieresis" unicode="&#xcb;" horiz-adv-x="661" 
d="M605 0v110h-405v188h386v104h-386v189h402v109h-514v-700h517zM174 834c0 82 124 82 124 0s-124 -82 -124 0zM414 834c0 82 125 82 125 0s-125 -82 -125 0z" />
    <glyph glyph-name="Ecircumflex" unicode="&#xca;" horiz-adv-x="661" 
d="M605 0v110h-405v188h386v104h-386v189h402v109h-514v-700h517zM326 922h60l147 -136v-6h-107l-70 60l-70 -60h-107v6z" />
    <glyph glyph-name="Eacute" unicode="&#xc9;" horiz-adv-x="661" 
d="M605 0v110h-405v188h386v104h-386v189h402v109h-514v-700h517zM493 909v-4l-105 -133h-93v5l74 132h124z" />
    <glyph glyph-name="Egrave" unicode="&#xc8;" horiz-adv-x="661" 
d="M605 110v-110h-517v700h514v-109h-402v-189h386v-104h-386v-188h405zM228 907v4h124l74 -135v-5h-93z" />
    <glyph glyph-name="Idieresis" unicode="&#xcf;" horiz-adv-x="287" 
d="M-18 831c0 82 124 82 124 0s-124 -82 -124 0zM187 831c0 82 125 82 125 0s-125 -82 -125 0zM88 0h111v700h-111v-700z" />
    <glyph glyph-name="Icircumflex" unicode="&#xce;" horiz-adv-x="287" 
d="M88 0h111v700h-111v-700zM116 910h54l132 -135v-6h-96l-63 59l-62 -59h-97v6z" />
    <glyph glyph-name="Iacute" unicode="&#xcd;" horiz-adv-x="287" 
d="M88 0h111v700h-111v-700zM288 902v-4l-105 -133h-93v5l74 132h124z" />
    <glyph glyph-name="Igrave" unicode="&#xcc;" horiz-adv-x="287" 
d="M199 0h-111v700h111v-700zM-2 905v4h124l74 -135v-5h-93z" />
    <glyph glyph-name="Eth" unicode="&#xd0;" horiz-adv-x="758" 
d="M18 301v94h79v305h254c236 0 360 -157 361 -338c1 -189 -113 -362 -361 -362h-254v301h-79zM206 301v-197h145c171 0 250 113 250 255c-1 142 -86 239 -250 239h-145v-203h142v-94h-142z" />
    <glyph glyph-name="Ntilde" unicode="&#xd1;" horiz-adv-x="771" 
d="M174 700l397 -498v498h112v-700h-85l-397 494v-494h-113v700h86zM290 773l-61 33c19 56 59 94 118 81c24 -6 45 -21 68 -29s51 -9 62 26l66 -25c-12 -79 -73 -96 -119 -85c-24 6 -46 21 -68 29c-23 8 -50 5 -66 -30z" />
    <glyph glyph-name="Ograve" unicode="&#xd2;" horiz-adv-x="806" 
d="M405 713c239 -1 356 -177 356 -366s-115 -362 -358 -362s-358 177 -358 361c0 213 149 367 360 367zM156 345c2 -124 74 -257 247 -257c174 0 247 123 247 257c0 129 -74 263 -245 266c-162 0 -249 -113 -249 -266zM269 915v4h124l74 -135v-5h-93z" />
    <glyph glyph-name="Odieresis" unicode="&#xd6;" horiz-adv-x="806" 
d="M405 713c-211 0 -360 -154 -360 -367c0 -184 115 -361 358 -361s358 173 358 362s-117 365 -356 366zM156 345c0 153 87 266 249 266c171 -3 245 -137 245 -266c0 -134 -73 -257 -247 -257c-173 0 -245 133 -247 257zM223 840c0 82 124 82 124 0s-124 -82 -124 0z
M463 840c0 82 125 82 125 0s-125 -82 -125 0z" />
    <glyph glyph-name="Otilde" unicode="&#xd5;" horiz-adv-x="806" 
d="M405 713c239 -1 356 -177 356 -366s-115 -362 -358 -362s-358 177 -358 361c0 213 149 367 360 367zM156 345c2 -124 74 -257 247 -257c174 0 247 123 247 257c0 129 -74 263 -245 266c-162 0 -249 -113 -249 -266zM309 779l-61 33c19 56 59 94 118 81
c24 -6 45 -21 68 -29s51 -9 62 26l66 -25c-12 -79 -73 -96 -119 -85c-24 6 -46 21 -68 29c-23 8 -50 5 -66 -30z" />
    <glyph glyph-name="Ocircumflex" unicode="&#xd4;" horiz-adv-x="806" 
d="M405 713c-211 0 -360 -154 -360 -367c0 -184 115 -361 358 -361s358 173 358 362s-117 365 -356 366zM156 345c0 153 87 266 249 266c171 -3 245 -137 245 -266c0 -134 -73 -257 -247 -257c-173 0 -245 133 -247 257zM375 922h60l147 -136v-6h-107l-70 60l-70 -60h-107v6
z" />
    <glyph glyph-name="Oacute" unicode="&#xd3;" horiz-adv-x="806" 
d="M405 713c-211 0 -360 -154 -360 -367c0 -184 115 -361 358 -361s358 173 358 362s-117 365 -356 366zM156 345c0 153 87 266 249 266c171 -3 245 -137 245 -266c0 -134 -73 -257 -247 -257c-173 0 -245 133 -247 257zM545 916v-4l-105 -133h-93v5l74 132h124z" />
    <glyph glyph-name="Oslash" unicode="&#xd8;" horiz-adv-x="804" 
d="M404 713c54 0 103 -10 145 -27l46 79h109l-74 -126c88 -70 132 -181 132 -292c-2 -182 -115 -362 -358 -362c-56 0 -105 9 -147 26l-50 -85h-109l78 131c-87 68 -130 177 -130 289c0 185 118 367 358 367zM404 88c174 0 246 132 247 257c1 74 -24 150 -77 201l-262 -444
c27 -9 57 -14 92 -14zM404 611c-174 0 -250 -137 -247 -266c0 -71 25 -144 76 -192l261 442c-26 10 -56 16 -90 16z" />
    <glyph glyph-name="Yacute" unicode="&#xdd;" horiz-adv-x="686" 
d="M342 391l-193 309h-133v-5l270 -408v-287h112v287l278 408v5h-135zM477 912v-4l-105 -133h-93v5l74 132h124z" />
    <glyph glyph-name="Udieresis" unicode="&#xdc;" horiz-adv-x="751" 
d="M672 699h-111v-409c0 -133 -82 -206 -194 -200c-104 4 -178 73 -178 200v409h-111v-409c0 -199 133 -299 289 -303c169 -6 305 97 305 303v409zM194 835c0 82 124 82 124 0s-124 -82 -124 0zM434 835c0 82 125 82 125 0s-125 -82 -125 0z" />
    <glyph glyph-name="Ucircumflex" unicode="&#xdb;" horiz-adv-x="751" 
d="M672 699h-111v-409c0 -133 -82 -206 -194 -200c-104 4 -178 73 -178 200v409h-111v-409c0 -199 133 -299 289 -303c169 -6 305 97 305 303v409zM343 922h60l147 -136v-6h-107l-70 60l-70 -60h-107v6z" />
    <glyph glyph-name="Uacute" unicode="&#xda;" horiz-adv-x="751" 
d="M672 699h-111v-409c0 -133 -82 -206 -194 -200c-104 4 -178 73 -178 200v409h-111v-409c0 -199 133 -299 289 -303c169 -6 305 97 305 303v409zM516 915v-4l-105 -133h-93v5l74 132h124z" />
    <glyph glyph-name="Ugrave" unicode="&#xd9;" horiz-adv-x="751" 
d="M561 699h111v-409c0 -206 -136 -309 -305 -303c-156 4 -289 104 -289 303v409h111v-409c0 -127 74 -196 178 -200c112 -6 194 67 194 200v409zM247 910v4h124l74 -135v-5h-93z" />
    <glyph glyph-name="aring" unicode="&#xe5;" horiz-adv-x="636" 
d="M463 415l3 78h100v-493h-98l-5 80c-33 -63 -109 -93 -170 -93c-144 -1 -253 92 -253 260c0 165 113 257 255 257c70 0 137 -33 168 -89zM303 410c-88 0 -160 -62 -160 -163c0 -102 72 -164 160 -164c213 0 213 327 0 327zM191 656c0 72 59 109 124 109s128 -37 128 -109
s-59 -111 -127 -111c-67 0 -125 40 -125 111zM315 707c-77 0 -76 -100 0 -100c80 0 77 100 0 100z" />
    <glyph glyph-name="adieresis" unicode="&#xe4;" horiz-adv-x="636" 
d="M463 415c-31 56 -98 89 -168 89c-142 0 -255 -92 -255 -257c0 -168 109 -261 253 -260c61 0 137 30 170 93l5 -80h98v493h-100zM303 410c213 0 213 -327 0 -327c-88 0 -160 62 -160 164c0 101 72 163 160 163zM148 647c0 82 124 82 124 0s-124 -82 -124 0zM388 647
c0 82 125 82 125 0s-125 -82 -125 0z" />
    <glyph glyph-name="atilde" unicode="&#xe3;" horiz-adv-x="636" 
d="M463 415l3 78h100v-493h-98l-5 80c-33 -63 -109 -93 -170 -93c-144 -1 -253 92 -253 260c0 165 113 257 255 257c70 0 137 -33 168 -89zM303 410c-88 0 -160 -62 -160 -163c0 -102 72 -164 160 -164c213 0 213 327 0 327zM229 597l-61 33c19 56 59 94 118 81
c24 -6 45 -21 68 -29s51 -9 62 26l66 -25c-12 -79 -73 -96 -119 -85c-24 6 -46 21 -68 29c-23 8 -50 5 -66 -30z" />
    <glyph glyph-name="acircumflex" unicode="&#xe2;" horiz-adv-x="636" 
d="M463 415c-31 56 -98 89 -168 89c-142 0 -255 -92 -255 -257c0 -168 109 -261 253 -260c61 0 137 30 170 93l5 -80h98v493h-100zM303 410c213 0 213 -327 0 -327c-88 0 -160 62 -160 164c0 101 72 163 160 163zM297 713h60l147 -136v-6h-107l-70 60l-70 -60h-107v6z" />
    <glyph glyph-name="aacute" unicode="&#xe1;" horiz-adv-x="636" 
d="M463 415c-31 56 -98 89 -168 89c-142 0 -255 -92 -255 -257c0 -168 109 -261 253 -260c61 0 137 30 170 93l5 -80h98v493h-100zM303 410c213 0 213 -327 0 -327c-88 0 -160 62 -160 164c0 101 72 163 160 163zM443 704v-4l-105 -133h-93v5l74 132h124z" />
    <glyph glyph-name="agrave" unicode="&#xe0;" horiz-adv-x="636" 
d="M463 415l3 78h100v-493h-98l-5 80c-33 -63 -109 -93 -170 -93c-144 -1 -253 92 -253 260c0 165 113 257 255 257c70 0 137 -33 168 -89zM303 410c-88 0 -160 -62 -160 -163c0 -102 72 -164 160 -164c213 0 213 327 0 327zM186 705v4h124l74 -135v-5h-93z" />
    <glyph glyph-name="ae" unicode="&#xe6;" horiz-adv-x="1012" 
d="M973 208h-401c13 -82 82 -126 160 -126c55 0 115 17 150 53l62 -63c-60 -64 -136 -84 -212 -84c-80 0 -138 29 -173 83l-3 -71h-91l-1 78c-33 -63 -114 -91 -171 -91c-144 0 -253 89 -253 260c0 165 113 257 256 257c69 0 137 -33 169 -89l3 78h92v-72
c44 61 109 85 178 85c157 0 269 -111 235 -298zM304 410c-89 0 -160 -62 -160 -163c0 -102 71 -164 160 -164c219 0 219 327 0 327zM574 295h304c0 79 -60 119 -142 119c-75 0 -146 -41 -162 -119z" />
    <glyph glyph-name="ccedilla" unicode="&#xe7;" horiz-adv-x="512" 
d="M146 -186l46 40c30 -43 114 -55 130 -5c12 38 -49 61 -93 38l-23 18l27 90c-111 23 -193 108 -193 251c0 170 117 259 260 259c68 0 125 -21 178 -73l-66 -69c-31 30 -72 44 -111 44c-89 0 -158 -63 -158 -161c0 -104 72 -159 157 -159c42 0 85 13 117 46l70 -69
c-53 -53 -115 -77 -180 -77l-11 -40c89 -1 110 -60 100 -109c-24 -112 -187 -121 -250 -24z" />
    <glyph glyph-name="edieresis" unicode="&#xeb;" horiz-adv-x="582" 
d="M132 644c0 82 124 82 124 0s-124 -82 -124 0zM352 644c0 82 125 82 125 0s-125 -82 -125 0zM547 208c19 201 -89 298 -248 298c-154 0 -259 -107 -259 -257c0 -158 104 -261 266 -261c76 0 161 28 212 84l-67 65c-30 -34 -93 -53 -143 -53c-90 0 -152 49 -161 124h400z
M149 295c16 78 78 119 153 119c83 0 140 -41 146 -119h-299z" />
    <glyph glyph-name="ecircumflex" unicode="&#xea;" horiz-adv-x="582" 
d="M547 208c19 201 -89 298 -248 298c-154 0 -259 -107 -259 -257c0 -158 104 -261 266 -261c76 0 161 28 212 84l-67 65c-30 -34 -93 -53 -143 -53c-90 0 -152 49 -161 124h400zM149 295c16 78 78 119 153 119c83 0 140 -41 146 -119h-299zM276 705h60l147 -136v-6h-107
l-70 60l-70 -60h-107v6z" />
    <glyph glyph-name="eacute" unicode="&#xe9;" horiz-adv-x="582" 
d="M547 208c19 201 -89 298 -248 298c-154 0 -259 -107 -259 -257c0 -158 104 -261 266 -261c76 0 161 28 212 84l-67 65c-30 -34 -93 -53 -143 -53c-90 0 -152 49 -161 124h400zM149 295c16 78 78 119 153 119c83 0 140 -41 146 -119h-299zM440 703v-4l-105 -133h-93v5
l74 132h124z" />
    <glyph glyph-name="egrave" unicode="&#xe8;" horiz-adv-x="582" 
d="M547 208h-400c9 -75 71 -124 161 -124c50 0 113 19 143 53l67 -65c-51 -56 -136 -84 -212 -84c-162 0 -266 103 -266 261c0 150 105 257 259 257c159 0 267 -97 248 -298zM149 295h299c-6 78 -63 119 -146 119c-75 0 -137 -41 -153 -119zM176 698v4h124l74 -135v-5h-93z
" />
    <glyph glyph-name="ntilde" unicode="&#xf1;" horiz-adv-x="610" 
d="M548 0h-104v264c0 85 -48 142 -133 142c-82 0 -138 -67 -138 -148v-258h-103v494h94l6 -72c47 53 102 79 166 79c120 0 212 -85 212 -236v-265zM220 596l-55 33c17 55 54 92 107 79c22 -5 42 -20 63 -28s46 -9 56 26l61 -25c-11 -78 -67 -95 -109 -84
c-22 6 -42 21 -62 29c-21 8 -46 5 -61 -30z" />
    <glyph glyph-name="ograve" unicode="&#xf2;" horiz-adv-x="588" 
d="M293 503c152 0 256 -112 256 -257c0 -146 -101 -256 -256 -256c-154 0 -254 110 -254 256c0 145 101 257 254 257zM293 408c-94 0 -151 -75 -151 -162c0 -88 57 -160 151 -160c95 0 152 72 152 160c0 87 -62 162 -152 162zM156 703v4h124l74 -130v-5h-93z" />
    <glyph glyph-name="oacute" unicode="&#xf3;" horiz-adv-x="588" 
d="M293 503c-153 0 -254 -112 -254 -257c0 -146 100 -256 254 -256c155 0 256 110 256 256c0 145 -104 257 -256 257zM293 408c90 0 152 -75 152 -162c0 -88 -57 -160 -152 -160c-94 0 -151 72 -151 160c0 87 57 162 151 162zM434 706v-4l-104 -132h-92v5l73 131h123z" />
    <glyph glyph-name="ocircumflex" unicode="&#xf4;" horiz-adv-x="588" 
d="M293 503c-153 0 -254 -112 -254 -257c0 -146 100 -256 254 -256c155 0 256 110 256 256c0 145 -104 257 -256 257zM293 408c90 0 152 -75 152 -162c0 -88 -57 -160 -152 -160c-94 0 -151 72 -151 160c0 87 57 162 151 162zM265 721h60l147 -136v-6h-107l-70 60l-70 -60
h-107v6z" />
    <glyph glyph-name="otilde" unicode="&#xf5;" horiz-adv-x="588" 
d="M293 503c152 0 256 -112 256 -257c0 -146 -101 -256 -256 -256c-154 0 -254 110 -254 256c0 145 101 257 254 257zM293 408c-94 0 -151 -75 -151 -162c0 -88 57 -160 151 -160c95 0 152 72 152 160c0 87 -62 162 -152 162zM203 600l-57 32c18 55 55 92 110 79
c22 -6 42 -20 63 -28s47 -9 58 25l61 -24c-11 -77 -68 -93 -111 -83c-22 6 -42 21 -63 28c-21 8 -46 5 -61 -29z" />
    <glyph glyph-name="odieresis" unicode="&#xf6;" horiz-adv-x="588" 
d="M133 647c0 82 124 82 124 0s-124 -82 -124 0zM345 647c0 82 125 82 125 0s-125 -82 -125 0zM293 503c-153 0 -254 -112 -254 -257c0 -146 100 -256 254 -256c155 0 256 110 256 256c0 145 -104 257 -256 257zM293 408c90 0 152 -75 152 -162c0 -88 -57 -160 -152 -160
c-94 0 -151 72 -151 160c0 87 57 162 151 162z" />
    <glyph glyph-name="oslash" unicode="&#xf8;" horiz-adv-x="588" 
d="M293 503c34 0 66 -6 95 -17l37 63h99l-63 -106c56 -46 88 -117 88 -197c0 -146 -101 -256 -256 -256c-33 0 -64 5 -92 14l-39 -66h-99l64 108c-56 45 -88 117 -88 200c0 145 101 257 254 257zM293 408c-94 0 -151 -75 -151 -162c0 -44 14 -82 39 -109l156 264
c-13 4 -29 7 -44 7zM293 86c95 0 152 72 152 160c0 40 -14 77 -38 105l-154 -260c12 -4 26 -5 40 -5z" />
    <glyph glyph-name="ugrave" unicode="&#xf9;" 
d="M62 493h103v-264c0 -84 48 -142 134 -142c81 0 137 67 137 149v257h103v-494h-93l-6 73c-48 -55 -101 -80 -170 -80c-121 0 -208 87 -208 236v265zM174 698v4h124l74 -135v-5h-93z" />
    <glyph glyph-name="uacute" unicode="&#xfa;" 
d="M165 493h-103v-265c0 -149 87 -236 208 -236c69 0 122 25 170 80l6 -73h93v494h-103v-257c0 -82 -56 -149 -137 -149c-86 0 -134 58 -134 142v264zM441 699v-4l-105 -133h-93v5l74 132h124z" />
    <glyph glyph-name="ucircumflex" unicode="&#xfb;" 
d="M165 493h-103v-265c0 -149 87 -236 208 -236c69 0 122 25 170 80l6 -73h93v494h-103v-257c0 -82 -56 -149 -137 -149c-86 0 -134 58 -134 142v264zM283 710h58l142 -131v-5h-103l-68 57l-67 -57h-104v5z" />
    <glyph glyph-name="udieresis" unicode="&#xfc;" 
d="M165 493h-103v-265c0 -149 87 -236 208 -236c69 0 122 25 170 80l6 -73h93v494h-103v-257c0 -82 -56 -149 -137 -149c-86 0 -134 58 -134 142v264zM129 644c0 82 124 82 124 0s-124 -82 -124 0zM369 644c0 82 125 82 125 0s-125 -82 -125 0z" />
    <glyph glyph-name="yacute" unicode="&#xfd;" horiz-adv-x="558" 
d="M542 493h-115l-98 -235l-53 -138l-49 140l-85 233h-120l197 -486l-102 -236h114zM411 700v-4l-99 -126h-87v5l69 125h117z" />
    <glyph glyph-name="ydieresis" unicode="&#xff;" horiz-adv-x="558" 
d="M542 493h-115l-98 -235l-53 -138l-49 140l-85 233h-120l197 -486l-102 -236h114zM95 648c0 81 123 81 123 0c0 -82 -123 -82 -123 0zM333 648c0 81 124 81 124 0c0 -82 -124 -82 -124 0z" />
    <glyph glyph-name="g.alt" horiz-adv-x="638" 
d="M304 410c-89 0 -160 -62 -160 -163c0 -102 71 -164 160 -164c213 0 213 327 0 327zM67 -63l101 -1c5 -65 66 -95 148 -95c76 0 149 42 149 150v89c-33 -63 -110 -93 -171 -93c-144 -1 -254 92 -254 260c0 165 113 257 256 257c69 0 137 -33 169 -89l3 78h100v-504
c0 -179 -125 -245 -252 -245c-152 0 -248 68 -249 193z" />
    <glyph glyph-name="gcircumflex.alt" horiz-adv-x="638" 
d="M300 720h60l146 -137v-6h-105l-72 56l-70 -56h-106v6zM304 410c213 0 213 -327 0 -327c-89 0 -160 62 -160 164c0 101 71 163 160 163zM168 -64l-101 1c1 -125 97 -193 249 -193c127 0 252 66 252 245v504h-100l-3 -78c-32 56 -100 89 -169 89c-143 0 -256 -92 -256 -257
c0 -168 110 -261 254 -260c61 0 138 30 171 93v-89c0 -108 -73 -150 -149 -150c-82 0 -143 30 -148 95z" />
    <glyph glyph-name="gbreve.alt" horiz-adv-x="638" 
d="M304 410c-89 0 -160 -62 -160 -163c0 -102 71 -164 160 -164c213 0 213 327 0 327zM168 -64c5 -65 66 -95 148 -95c76 0 149 42 149 150v89c-33 -63 -110 -93 -171 -93c-144 -2 -254 92 -254 260c0 166 113 257 256 257c69 0 137 -33 169 -89c0 26 2 52 3 78h100v-504
c0 -179 -125 -245 -252 -245c-152 0 -248 68 -249 193c34 0 67 -1 101 -1zM383 709h84c0 -89 -66 -139 -145 -139c-78 0 -152 48 -146 139h84c0 -37 24 -62 62 -62c37 0 61 25 61 62z" />
    <glyph glyph-name="gdotaccent.alt" horiz-adv-x="638" 
d="M304 410c213 0 213 -327 0 -327c-89 0 -160 62 -160 164c0 101 71 163 160 163zM168 -64l-101 1c1 -125 97 -193 249 -193c127 0 252 66 252 245v504h-100l-3 -78c-32 56 -100 89 -169 89c-143 0 -256 -92 -256 -257c0 -168 110 -261 254 -260c61 0 138 30 171 93v-89
c0 -108 -73 -150 -149 -150c-82 0 -143 30 -148 95zM251 656c0 85 128 85 128 0c0 -84 -128 -84 -128 0z" />
    <glyph glyph-name="gcommaaccent.alt" horiz-adv-x="638" 
d="M304 410c213 0 213 -327 0 -327c-89 0 -160 62 -160 164c0 101 71 163 160 163zM168 -64c-34 0 -67 1 -101 1c1 -125 97 -193 249 -193c127 0 252 66 252 245v504h-100c-1 -26 -3 -52 -3 -78c-32 56 -100 89 -169 89c-143 0 -256 -91 -256 -257c0 -168 110 -262 254 -260
c61 0 138 30 171 93v-89c0 -108 -73 -150 -149 -150c-82 0 -143 30 -148 95zM248 635c0 15 7 16 43 124h62l-20 -77c24 -5 41 -21 41 -49c0 -82 -126 -79 -126 2z" />
    <glyph glyph-name="Abreve" unicode="&#x102;" horiz-adv-x="768" 
d="M640 0l-67 147h-379l-66 -147h-119l314 700h122l314 -700h-119zM532 249l-148 333l-148 -333h296zM450 891h87c0 -90 -68 -140 -151 -140c-80 0 -157 48 -151 140h87c0 -37 25 -62 64 -62s64 25 64 62z" />
    <glyph glyph-name="abreve" unicode="&#x103;" horiz-adv-x="636" 
d="M463 415l3 78h100v-493h-98l-5 80c-33 -63 -109 -93 -170 -93c-144 -1 -253 92 -253 260c0 165 113 257 255 257c70 0 137 -33 168 -89zM303 410c-88 0 -160 -62 -160 -163c0 -102 72 -164 160 -164c213 0 213 327 0 327zM387 706h84c0 -89 -65 -139 -145 -139
c-78 0 -152 48 -146 139h84c0 -37 24 -62 62 -62c37 0 61 25 61 62z" />
    <glyph glyph-name="Aogonek" unicode="&#x104;" horiz-adv-x="769" 
d="M528 247l-144 330l-145 -330h289zM727 -67l55 -40c-23 -37 -68 -59 -110 -64c-161 -20 -208 164 -55 214l-44 99h-379l-64 -142h-121l314 700h122l316 -702c-35 4 -68 6 -95 0c-78 -16 -76 -100 0 -95c20 1 43 10 61 30z" />
    <glyph glyph-name="aogonek" unicode="&#x105;" horiz-adv-x="636" 
d="M574 -108l55 -39c-23 -40 -66 -61 -111 -65c-64 -6 -124 22 -139 79c-11 38 2 104 92 134l-8 79c-33 -63 -109 -93 -170 -93c-144 -2 -253 92 -253 260c0 166 113 257 255 257c70 0 137 -33 168 -89l3 78h100v-537c-64 8 -129 -33 -93 -73c13 -19 62 -28 101 9zM303 410
c-88 0 -160 -62 -160 -163c0 -102 72 -164 160 -164c213 0 213 327 0 327z" />
    <glyph glyph-name="Cacute" unicode="&#x106;" horiz-adv-x="703" 
d="M677 90l-77 77c-49 -49 -121 -76 -186 -76c-181 0 -257 127 -258 255c-1 129 80 260 258 260c65 0 131 -23 181 -72l75 72c-71 71 -162 106 -256 106c-250 0 -370 -183 -369 -367s115 -359 369 -359c98 0 191 33 263 104zM546 899v-4l-104 -123h-92v5l73 122h123z" />
    <glyph glyph-name="cacute" unicode="&#x107;" horiz-adv-x="509" 
d="M487 64l-70 69c-32 -33 -75 -46 -117 -46c-85 0 -157 55 -157 159c0 98 69 161 158 161c39 0 80 -14 111 -44l66 69c-53 52 -110 73 -178 73c-143 0 -260 -89 -260 -259s118 -259 260 -259c71 0 132 23 187 77zM412 701v-3l-99 -116h-86v5l69 114h116z" />
    <glyph glyph-name="Ccircumflex" unicode="&#x108;" horiz-adv-x="703" 
d="M677 90l-77 77c-49 -49 -121 -76 -186 -76c-181 0 -257 127 -258 255c-1 129 80 260 258 260c65 0 131 -23 181 -72l75 72c-71 71 -162 106 -256 106c-250 0 -370 -183 -369 -367s115 -359 369 -359c98 0 191 33 263 104zM388 918h58l142 -131v-5h-103l-68 57l-67 -57
h-104v5z" />
    <glyph glyph-name="ccircumflex" unicode="&#x109;" horiz-adv-x="509" 
d="M487 64l-70 69c-32 -33 -75 -46 -117 -46c-85 0 -157 55 -157 159c0 98 69 161 158 161c39 0 80 -14 111 -44l66 69c-53 52 -110 73 -178 73c-143 0 -260 -89 -260 -259s118 -259 260 -259c71 0 132 23 187 77zM273 716h56l136 -126v-6h-99l-65 56l-65 -56h-100v6z" />
    <glyph glyph-name="Cdotaccent" unicode="&#x10a;" horiz-adv-x="703" 
d="M677 90l-77 77c-49 -49 -121 -76 -186 -76c-181 0 -257 127 -258 255c-1 129 80 260 258 260c65 0 131 -23 181 -72l75 72c-71 71 -162 106 -256 106c-250 0 -370 -183 -369 -367s115 -359 369 -359c98 0 191 33 263 104zM341 844c0 87 136 87 136 0
c0 -88 -136 -88 -136 0z" />
    <glyph glyph-name="cdotaccent" unicode="&#x10b;" horiz-adv-x="509" 
d="M487 64l-70 69c-32 -33 -75 -46 -117 -46c-85 0 -157 55 -157 159c0 98 69 161 158 161c39 0 80 -14 111 -44l66 69c-53 52 -110 73 -178 73c-143 0 -260 -89 -260 -259s118 -259 260 -259c71 0 132 23 187 77zM224 639c0 81 134 81 134 0s-134 -81 -134 0z" />
    <glyph glyph-name="Ccaron" unicode="&#x10c;" horiz-adv-x="703" 
d="M677 90l-77 77c-49 -49 -121 -76 -186 -76c-181 0 -257 127 -258 255c-1 129 80 260 258 260c65 0 131 -23 181 -72l75 72c-71 71 -162 106 -256 106c-250 0 -370 -183 -369 -367s115 -359 369 -359c98 0 191 33 263 104zM226 900v6h104l70 -58l74 58h101v-6l-146 -128
h-60z" />
    <glyph glyph-name="ccaron" unicode="&#x10d;" horiz-adv-x="509" 
d="M487 64l-70 69c-32 -33 -75 -46 -117 -46c-85 0 -157 55 -157 159c0 98 69 161 158 161c39 0 80 -14 111 -44l66 69c-53 52 -110 73 -178 73c-143 0 -260 -89 -260 -259s118 -259 260 -259c71 0 132 23 187 77zM122 694v6h97l66 -57l69 57h95v-6l-137 -126h-56z" />
    <glyph glyph-name="Dcaron" unicode="&#x10e;" horiz-adv-x="750" 
d="M353 700h-265v-700h265c245 0 355 179 351 356c-3 173 -112 344 -351 344zM199 108v485h154c165 0 237 -118 240 -236c3 -123 -69 -249 -240 -249h-154zM155 900v6h102l68 -60l72 60h99v-6l-143 -131h-58z" />
    <glyph glyph-name="dcaron" unicode="&#x10f;" horiz-adv-x="636" 
d="M299 407c-87 0 -156 -59 -156 -160c0 -99 69 -161 156 -161c86 0 157 64 157 161c0 95 -71 160 -157 160zM463 699h103v-699h-97l-6 78c-39 -63 -105 -88 -171 -88c-143 0 -252 94 -252 257c0 168 107 257 250 257c60 0 141 -30 173 -88v283zM605 514l42 186h96l-65 -186
h-73z" />
    <glyph glyph-name="Dcroat" unicode="&#x110;" horiz-adv-x="755" 
d="M29 306v93h64v301h265c239 0 348 -171 351 -344c4 -177 -106 -356 -351 -356h-265v306h-64zM204 306v-198h154c171 0 243 126 240 249c-3 118 -75 236 -240 236h-154v-194h119v-93h-119z" />
    <glyph glyph-name="dcroat" unicode="&#x111;" horiz-adv-x="636" 
d="M463 699h103v-63h63v-73h-63v-563h-97l-6 78c-39 -63 -105 -88 -171 -88c-143 0 -252 94 -252 257c0 168 107 257 250 257c60 0 141 -30 173 -88v147h-104v73h104v63zM299 407c-87 0 -156 -59 -156 -160c0 -99 69 -161 156 -161c86 0 157 64 157 161
c0 95 -71 160 -157 160z" />
    <glyph glyph-name="Ebreve" unicode="&#x114;" horiz-adv-x="661" 
d="M605 110v-110h-517v700h514v-109h-402v-189h386v-104h-386v-188h405zM416 912h84c0 -89 -65 -139 -145 -139c-78 0 -152 48 -146 139h84c0 -37 24 -62 62 -62c37 0 61 25 61 62z" />
    <glyph glyph-name="ebreve" unicode="&#x115;" horiz-adv-x="582" 
d="M547 208h-400c9 -75 71 -124 161 -124c50 0 113 19 143 53l67 -65c-51 -56 -136 -84 -212 -84c-162 0 -266 103 -266 261c0 150 105 257 259 257c159 0 267 -97 248 -298zM149 295h299c-6 78 -63 119 -146 119c-75 0 -137 -41 -153 -119zM368 709h84
c0 -89 -65 -139 -145 -139c-78 0 -152 48 -146 139h84c0 -37 24 -62 62 -62c37 0 61 25 61 62z" />
    <glyph glyph-name="Edotaccent" unicode="&#x116;" horiz-adv-x="661" 
d="M605 0v110h-405v188h386v104h-386v189h402v109h-514v-700h517zM285 840c0 84 128 84 128 0c0 -85 -128 -85 -128 0z" />
    <glyph glyph-name="edotaccent" unicode="&#x117;" horiz-adv-x="582" 
d="M547 208c19 201 -89 298 -248 298c-154 0 -259 -107 -259 -257c0 -158 104 -261 266 -261c76 0 161 28 212 84l-67 65c-30 -34 -93 -53 -143 -53c-90 0 -152 49 -161 124h400zM149 295c16 78 78 119 153 119c83 0 140 -41 146 -119h-299zM240 659c0 81 133 81 133 0
c0 -83 -133 -83 -133 0z" />
    <glyph glyph-name="Eogonek" unicode="&#x118;" horiz-adv-x="661" 
d="M605 110v-110c-110 7 -134 -46 -119 -74c15 -27 73 -41 106 6l48 -51c-51 -84 -182 -81 -226 -5c-21 36 -19 87 29 124h-355v700h514v-109h-402v-189h386v-104h-386v-188h405z" />
    <glyph glyph-name="eogonek" unicode="&#x119;" horiz-adv-x="583" 
d="M546 208h-400c9 -75 71 -124 161 -124c50 0 113 19 143 53l67 -65c-26 -29 -65 -52 -104 -66c-84 -46 12 -130 80 -59l55 -40c-52 -82 -177 -88 -225 -29c-23 28 -28 64 -2 113c-20 0 -52 3 -71 6c-128 22 -211 115 -211 252c0 150 105 257 259 257
c159 0 267 -97 248 -298zM148 295h299c-6 78 -63 119 -146 119c-75 0 -137 -41 -153 -119z" />
    <glyph glyph-name="Ecaron" unicode="&#x11a;" horiz-adv-x="661" 
d="M605 0v110h-405v188h386v104h-386v189h402v109h-514v-700h517zM193 903v6h102l70 -60l72 60h99v-6l-143 -132h-59z" />
    <glyph glyph-name="ecaron" unicode="&#x11b;" horiz-adv-x="582" 
d="M547 208c19 201 -89 298 -248 298c-154 0 -259 -107 -259 -257c0 -158 104 -261 266 -261c76 0 161 28 212 84l-67 65c-30 -34 -93 -53 -143 -53c-90 0 -152 49 -161 124h400zM149 295c16 78 78 119 153 119c83 0 140 -41 146 -119h-299zM132 700v6h101l68 -59l71 59h98
v-6l-141 -130h-58z" />
    <glyph glyph-name="Gcircumflex" unicode="&#x11c;" horiz-adv-x="743" 
d="M602 539l70 72c-72 71 -166 106 -259 106c-239 0 -368 -172 -368 -374c0 -186 111 -357 368 -357c118 0 205 45 275 122v287h-299v-100h195v-142c-56 -47 -111 -62 -171 -62c-182 0 -258 124 -258 252c-1 148 94 271 258 271c65 0 139 -26 189 -75zM369 922h59l146 -134
v-6h-106l-69 59l-69 -59h-106v6z" />
    <glyph glyph-name="gcircumflex" unicode="&#x11d;" horiz-adv-x="614" 
d="M440 474l54 66l75 -58l-59 -69c41 -48 60 -92 60 -153c0 -87 -43 -158 -131 -192c101 -34 130 -102 130 -161c0 -134 -132 -201 -264 -201c-161 0 -264 82 -260 219h103c-3 -77 75 -118 157 -119c76 0 157 31 157 101c0 69 -63 107 -155 107c-160 0 -267 92 -267 246
c0 165 133 248 267 248c41 0 98 -10 133 -34zM307 412c-84 0 -163 -49 -163 -152c0 -98 74 -151 163 -151c91 0 160 62 160 151c0 97 -75 152 -160 152zM288 720h57l139 -129v-6h-101l-67 57l-67 -57h-101v6z" />
    <glyph glyph-name="Gbreve" unicode="&#x11e;" horiz-adv-x="743" 
d="M672 611l-70 -72c-50 49 -124 75 -189 75c-164 0 -259 -123 -258 -271c0 -128 76 -252 258 -252c60 0 115 15 171 62v142h-195v100h299v-287c-70 -77 -157 -122 -275 -122c-257 0 -368 171 -368 357c0 202 129 374 368 374c93 0 187 -35 259 -106zM463 914h87
c0 -84 -67 -131 -150 -131c-80 0 -156 45 -150 131h86c0 -35 25 -59 64 -59c38 0 63 24 63 59z" />
    <glyph glyph-name="gbreve" unicode="&#x11f;" horiz-adv-x="614" 
d="M440 474l54 66l75 -58l-59 -69c41 -48 60 -92 60 -153c0 -87 -43 -158 -131 -192c101 -34 130 -102 130 -161c0 -134 -132 -201 -264 -201c-161 0 -264 82 -260 219h103c-3 -77 75 -118 157 -119c76 0 157 31 157 101c0 69 -63 107 -155 107c-160 0 -267 92 -267 246
c0 165 133 248 267 248c41 0 98 -10 133 -34zM307 412c-84 0 -163 -49 -163 -152c0 -98 74 -151 163 -151c91 0 160 62 160 151c0 97 -75 152 -160 152zM379 706h85c0 -86 -66 -134 -147 -134c-79 0 -155 46 -149 134h86c0 -36 24 -60 63 -60c38 0 62 24 62 60z" />
    <glyph glyph-name="Gdotaccent" unicode="&#x120;" horiz-adv-x="743" 
d="M602 539l70 72c-72 71 -166 106 -259 106c-239 0 -368 -172 -368 -374c0 -186 111 -357 368 -357c118 0 205 45 275 122v287h-299v-100h195v-142c-56 -47 -111 -62 -171 -62c-182 0 -258 124 -258 252c-1 148 94 271 258 271c65 0 139 -26 189 -75zM341 845
c0 81 131 81 131 0c0 -82 -131 -82 -131 0z" />
    <glyph glyph-name="gdotaccent" unicode="&#x121;" horiz-adv-x="614" 
d="M440 474l54 66l75 -58l-59 -69c41 -48 60 -92 60 -153c0 -87 -43 -158 -131 -192c101 -34 130 -102 130 -161c0 -134 -132 -201 -264 -201c-161 0 -264 82 -260 219h103c-3 -77 75 -118 157 -119c76 0 157 31 157 101c0 69 -63 107 -155 107c-160 0 -267 92 -267 246
c0 165 133 248 267 248c41 0 98 -10 133 -34zM307 412c-84 0 -163 -49 -163 -152c0 -98 74 -151 163 -151c91 0 160 62 160 151c0 97 -75 152 -160 152zM244 647c0 81 131 81 131 0c0 -82 -131 -82 -131 0z" />
    <glyph glyph-name="Gcommaaccent" unicode="&#x122;" horiz-adv-x="743" 
d="M672 611l-70 -72c-50 49 -124 75 -189 75c-164 0 -259 -123 -258 -271c0 -128 76 -252 258 -252c60 0 115 15 171 62v142h-195v100h299v-287c-70 -77 -157 -122 -275 -122c-257 0 -368 171 -368 357c0 202 129 374 368 374c93 0 187 -35 259 -106zM465 -135
c0 -15 -7 -27 -44 -135h-61l21 90c-24 5 -41 21 -41 48c0 72 125 75 125 -3z" />
    <glyph glyph-name="gcommaaccent" unicode="&#x123;" horiz-adv-x="614" 
d="M254 642c0 15 7 27 44 135h61l-22 -90c25 -5 42 -21 42 -48c0 -72 -125 -75 -125 3zM440 474l54 66l75 -58l-59 -69c41 -48 60 -92 60 -153c0 -87 -43 -158 -131 -192c101 -34 130 -102 130 -161c0 -134 -132 -201 -264 -201c-161 0 -264 82 -260 219h103
c-3 -77 75 -118 157 -119c76 0 157 31 157 101c0 69 -63 107 -155 107c-160 0 -267 92 -267 246c0 165 133 248 267 248c41 0 98 -10 133 -34zM307 412c-84 0 -163 -49 -163 -152c0 -98 74 -151 163 -151c91 0 160 62 160 151c0 97 -75 152 -160 152z" />
    <glyph glyph-name="Hcircumflex" unicode="&#x124;" horiz-adv-x="769" 
d="M570 0h111v700h-111v-305h-370v305h-112v-700h112v291h370v-291zM358 917h59l142 -133v-6h-104l-68 58l-68 -58h-104v6z" />
    <glyph glyph-name="hcircumflex" unicode="&#x125;" horiz-adv-x="599" 
d="M173 700h-103v-700h103v257c0 81 56 147 136 147c76 0 124 -46 124 -139v-265h103v266c0 141 -64 234 -203 234c-59 0 -117 -20 -160 -80v280zM265 908h58l141 -131v-5h-103l-67 57l-67 -57h-103v5z" />
    <glyph glyph-name="Hbar" unicode="&#x126;" horiz-adv-x="779" 
d="M686 -1h-111v292h-370v-292h-112v523h-68v72h68v105h112v-105h370v105h111v-105h69v-72h-69v-523zM205 395h370v127h-370v-127z" />
    <glyph glyph-name="hbar" unicode="&#x127;" horiz-adv-x="599" 
d="M8 561v72h62v67h103v-67h113v-72h-113v-141c43 60 101 80 160 80c139 0 203 -93 203 -234v-266h-103v265c0 93 -48 139 -124 139c-80 0 -136 -66 -136 -147v-257h-103v561h-62z" />
    <glyph glyph-name="Itilde" unicode="&#x128;" horiz-adv-x="287" 
d="M199 0h-111v700h111v-700zM56 762l-60 32c19 55 58 92 115 79c24 -6 44 -21 67 -28c22 -8 50 -9 60 25l65 -24c-12 -77 -72 -94 -116 -83c-24 6 -45 20 -67 28s-49 5 -64 -29z" />
    <glyph glyph-name="itilde" unicode="&#x129;" horiz-adv-x="248" 
d="M178 0h-108v481h108v-481zM40 602l-47 31c15 51 46 86 92 74c19 -5 35 -19 53 -27c18 -7 40 -8 48 24l52 -23c-10 -72 -57 -88 -93 -78c-19 6 -36 19 -53 27c-18 7 -39 4 -52 -28z" />
    <glyph glyph-name="Ibreve" unicode="&#x12c;" horiz-adv-x="287" 
d="M199 0h-111v700h111v-700zM196 902h74c0 -84 -57 -131 -128 -131c-68 0 -134 45 -128 131h74c0 -35 21 -58 54 -58s54 23 54 58z" />
    <glyph glyph-name="ibreve" unicode="&#x12d;" horiz-adv-x="248" 
d="M178 0h-108v481h108v-481zM175 698h74c0 -84 -57 -131 -128 -131c-68 0 -134 45 -128 131h74c0 -35 21 -58 54 -58s54 23 54 58z" />
    <glyph glyph-name="Iogonek" unicode="&#x12e;" horiz-adv-x="288" 
d="M229 -68l54 -40c-51 -96 -230 -92 -251 20c-7 34 1 88 57 112v676h111v-700c-151 0 -68 -155 29 -68z" />
    <glyph glyph-name="iogonek" unicode="&#x12f;" horiz-adv-x="246" 
d="M176 495h-103v-470c-64 -25 -67 -90 -52 -128c31 -78 179 -96 230 -11l-54 40c-40 -38 -88 -26 -103 0c-19 40 24 76 82 74v495zM61 638c0 84 128 84 128 0c0 -85 -128 -85 -128 0z" />
    <glyph glyph-name="Idotaccent" unicode="&#x130;" horiz-adv-x="287" 
d="M88 0h111v700h-111v-700zM75 837c0 84 128 84 128 0c0 -85 -128 -85 -128 0z" />
    <glyph glyph-name="IJ" unicode="&#x132;" horiz-adv-x="992" 
d="M199 0h-111v700h111v-700zM577 700h337v-410c0 -179 -116 -303 -300 -303c-174 0 -299 108 -299 297h110c0 -123 67 -192 189 -192s188 82 188 198v306h-225v104z" />
    <glyph glyph-name="ij" unicode="&#x133;" horiz-adv-x="486" 
d="M173 495h-103v-495h103v495zM58 638c0 84 128 84 128 0c0 -85 -128 -85 -128 0zM416 495h-103v-553c0 -57 -8 -91 -57 -92c-20 -1 -42 5 -63 15l-37 -81c34 -22 69 -31 104 -31c111 0 156 65 156 189v553zM301 640c0 84 128 84 128 0c0 -85 -128 -85 -128 0z" />
    <glyph glyph-name="Jcircumflex" unicode="&#x134;" horiz-adv-x="705" 
d="M627 700h-337v-104h225v-306c0 -116 -66 -198 -188 -198s-189 69 -189 192h-110c0 -189 125 -297 299 -297c184 0 300 124 300 303v410zM402 917h59l146 -130v-6h-106l-70 57l-69 -57h-106v6z" />
    <glyph glyph-name="jcircumflex" unicode="&#x135;" horiz-adv-x="243" 
d="M173 495h-103v-553c0 -57 -8 -91 -57 -92c-20 -1 -42 5 -63 15l-37 -81c34 -22 69 -31 104 -31c111 0 156 65 156 189v553zM97 710h47l115 -129v-6h-91l-48 51l-48 -51h-90v6z" />
    <glyph glyph-name="Kcommaaccent" unicode="&#x136;" horiz-adv-x="648" 
d="M624 700v-4l-321 -334l349 -355v-7h-140l-312 319v-319h-112v700h112v-302l285 302h139zM408 -114c0 -15 -7 -27 -44 -135h-61l21 90c-24 5 -41 21 -41 48c0 72 125 75 125 -3z" />
    <glyph glyph-name="kcommaaccent" unicode="&#x137;" horiz-adv-x="514" 
d="M70 699h104v-408l183 202h125v-6l-213 -226l242 -254v-7h-126l-211 228v-228h-104v699zM341 -114c0 -13 -6 -25 -40 -126h-55l20 84c-22 5 -38 20 -38 45c0 67 113 70 113 -3z" />
    <glyph glyph-name="kgreenlandic" unicode="&#x138;" horiz-adv-x="514" 
d="M70 493h104v-202l183 202h125v-6l-213 -226l242 -254v-7h-126l-211 228v-228h-104v493z" />
    <glyph glyph-name="Lacute" unicode="&#x139;" horiz-adv-x="587" 
d="M200 700h-112v-700h481v104h-369v596zM285 898v-4l-103 -125h-91v5l72 124h122z" />
    <glyph glyph-name="lacute" unicode="&#x13a;" horiz-adv-x="251" 
d="M177 699h-103v-699h103v699zM260 888v-4l-100 -120h-88v4l70 120h118z" />
    <glyph glyph-name="Lcommaaccent" unicode="&#x13b;" horiz-adv-x="587" 
d="M88 700h112v-596h369v-104h-481v700zM396 -124c0 -15 -7 -27 -44 -135h-61l21 90c-24 5 -41 21 -41 48c0 72 125 75 125 -3z" />
    <glyph glyph-name="lcommaaccent" unicode="&#x13c;" horiz-adv-x="251" 
d="M74 699h103v-699h-103v699zM180 -108c0 -14 -6 -25 -40 -126h-54l19 84c-22 5 -37 20 -37 44c0 67 112 70 112 -2z" />
    <glyph glyph-name="Lcaron" unicode="&#x13d;" horiz-adv-x="587" 
d="M88 700h112v-596h369v-104h-481v700zM346 510l44 191h99l-67 -191h-76z" />
    <glyph glyph-name="lcaron" unicode="&#x13e;" horiz-adv-x="247" 
d="M74 699h103v-699h-103v699zM215 508l44 192h99l-67 -192h-76z" />
    <glyph glyph-name="Ldot" unicode="&#x13f;" horiz-adv-x="587" 
d="M88 700h112v-596h369v-104h-481v700zM324 330c0 88 134 88 134 0s-134 -88 -134 0z" />
    <glyph glyph-name="ldot" unicode="&#x140;" horiz-adv-x="368" 
d="M74 699h103v-699h-103v699zM240 310c0 88 134 88 134 0s-134 -88 -134 0z" />
    <glyph glyph-name="Nacute" unicode="&#x143;" horiz-adv-x="771" 
d="M571 202l-397 498h-86v-700h113v494l397 -494h85v700h-112v-498zM520 899v-4l-107 -130h-95v5l76 129h126z" />
    <glyph glyph-name="nacute" unicode="&#x144;" horiz-adv-x="610" 
d="M444 0h104v265c0 151 -92 236 -212 236c-64 0 -119 -26 -166 -79l-6 72h-94v-494h103v258c0 81 56 148 138 148c85 0 133 -57 133 -142v-264zM436 700v-4l-99 -126h-87v5l69 125h117z" />
    <glyph glyph-name="Ncommaaccent" unicode="&#x145;" horiz-adv-x="771" 
d="M174 700l397 -498v498h112v-700h-85l-397 494v-494h-113v700h86zM454 -124c0 -15 -7 -27 -44 -135h-61l21 90c-24 5 -41 21 -41 48c0 72 125 75 125 -3z" />
    <glyph glyph-name="ncommaaccent" unicode="&#x146;" horiz-adv-x="610" 
d="M548 0h-104v264c0 85 -48 142 -133 142c-82 0 -138 -67 -138 -148v-258h-103v494h94l6 -72c47 53 102 79 166 79c120 0 212 -85 212 -236v-265zM368 -112c0 -13 -6 -25 -40 -128h-56l19 86c-22 5 -38 20 -38 45c0 69 115 71 115 -3z" />
    <glyph glyph-name="Ncaron" unicode="&#x147;" horiz-adv-x="771" 
d="M571 202l-397 498h-86v-700h113v494l397 -494h85v700h-112v-498zM221 900v6h101l68 -59l71 59h98v-6l-141 -130h-58z" />
    <glyph glyph-name="ncaron" unicode="&#x148;" horiz-adv-x="610" 
d="M444 0h104v265c0 151 -92 236 -212 236c-64 0 -119 -26 -166 -79l-6 72h-94v-494h103v258c0 81 56 148 138 148c85 0 133 -57 133 -142v-264zM147 699v6h99l67 -58l70 58h97v-6l-140 -128h-57z" />
    <glyph glyph-name="napostrophe" unicode="&#x149;" horiz-adv-x="610" 
d="M548 0h-104v264c0 85 -48 142 -133 142c-82 0 -138 -67 -138 -148v-258h-103v494h94l6 -72c47 53 102 79 166 79c120 0 212 -85 212 -236v-265z" />
    <glyph glyph-name="Eng" unicode="&#x14a;" horiz-adv-x="771" 
d="M174 700l397 -499v499h112v-723c1 -124 -45 -189 -156 -189c-35 0 -69 9 -102 31l36 81c22 -10 42 -16 62 -15c49 1 57 35 57 92v45l-379 472v-494h-113v700h86z" />
    <glyph glyph-name="eng" unicode="&#x14b;" horiz-adv-x="610" 
d="M444 -26v290c0 85 -48 142 -133 142c-82 0 -138 -67 -138 -148v-258h-103v494h94l6 -72c47 53 102 79 166 79c120 0 212 -85 212 -236v-291c0 -124 -45 -189 -156 -189c-35 0 -68 10 -102 31l37 82c21 -11 41 -17 61 -16c49 2 56 35 56 92z" />
    <glyph glyph-name="Obreve" unicode="&#x14e;" horiz-adv-x="806" 
d="M405 713c239 -1 356 -177 356 -366s-115 -362 -358 -362s-358 177 -358 361c0 213 149 367 360 367zM156 345c2 -124 74 -257 247 -257c174 0 247 123 247 257c0 129 -74 263 -245 266c-162 0 -249 -113 -249 -266zM473 909h85c0 -80 -66 -125 -147 -125
c-80 0 -156 43 -149 125h85c0 -34 25 -56 64 -56c37 0 62 22 62 56z" />
    <glyph glyph-name="obreve" unicode="&#x14f;" horiz-adv-x="588" 
d="M293 503c152 0 256 -112 256 -257c0 -146 -101 -256 -256 -256c-154 0 -254 110 -254 256c0 145 101 257 254 257zM293 408c-94 0 -151 -75 -151 -162c0 -88 57 -160 151 -160c95 0 152 72 152 160c0 87 -62 162 -152 162zM355 698h83c0 -86 -64 -134 -143 -134
c-77 0 -150 46 -144 134h83c0 -36 23 -60 61 -60c36 0 60 24 60 60z" />
    <glyph glyph-name="Ohungarumlaut" unicode="&#x150;" horiz-adv-x="806" 
d="M405 713c-211 0 -360 -154 -360 -367c0 -184 115 -361 358 -361s358 173 358 362s-117 365 -356 366zM156 345c0 153 87 266 249 266c171 -3 245 -137 245 -266c0 -134 -73 -257 -247 -257c-173 0 -245 133 -247 257zM613 910v-3l-97 -125h-84v1l81 127h100zM452 911v-4
l-96 -124h-85v1l81 127h100z" />
    <glyph glyph-name="ohungarumlaut" unicode="&#x151;" horiz-adv-x="588" 
d="M293 503c-153 0 -254 -112 -254 -257c0 -146 100 -256 254 -256c155 0 256 110 256 256c0 145 -104 257 -256 257zM293 408c90 0 152 -75 152 -162c0 -88 -57 -160 -152 -160c-94 0 -151 72 -151 160c0 87 57 162 151 162zM497 684v-2l-92 -109h-80v0l77 111h95zM343 685
v-3l-92 -109h-80v1l77 111h95z" />
    <glyph glyph-name="Racute" unicode="&#x154;" horiz-adv-x="721" 
d="M692 0l-12 20l-209 233c138 20 190 118 190 218c0 118 -85 229 -247 229c-109 0 -217 1 -326 1v-701h112v242h148l213 -242h131zM200 598h214c92 0 133 -66 133 -129c0 -66 -41 -125 -134 -125h-213v254zM463 910v-4l-100 -128h-89v5l71 127h118z" />
    <glyph glyph-name="racute" unicode="&#x155;" horiz-adv-x="440" 
d="M166 493h-96v-493h103v267c0 91 62 135 133 135c38 0 62 -10 87 -30l47 90c-28 25 -74 42 -122 42c-53 0 -109 -13 -145 -76zM346 699v-3l-93 -118h-83v4l66 117h110z" />
    <glyph glyph-name="Rcommaaccent" unicode="&#x156;" horiz-adv-x="721" 
d="M680 20l12 -20h-131l-213 242h-148v-242h-112v701c109 0 217 -1 326 -1c162 0 247 -111 247 -229c0 -100 -52 -198 -190 -218zM414 598h-214v-254h213c93 0 134 59 134 125c0 63 -41 129 -133 129zM427 -124c0 -15 -7 -27 -44 -135h-61l21 90c-24 5 -41 21 -41 48
c0 72 125 75 125 -3z" />
    <glyph glyph-name="rcommaaccent" unicode="&#x157;" horiz-adv-x="440" 
d="M70 493h96l7 -65c36 63 92 76 145 76c48 0 94 -17 122 -42l-47 -90c-25 20 -49 30 -87 30c-71 0 -133 -44 -133 -135v-267h-103v493zM179 -118c0 -14 -6 -26 -41 -130h-57l20 87c-23 5 -39 20 -39 46c0 69 117 72 117 -3z" />
    <glyph glyph-name="Rcaron" unicode="&#x158;" horiz-adv-x="721" 
d="M692 0l-12 20l-209 233c138 20 190 118 190 218c0 118 -85 229 -247 229c-109 0 -217 1 -326 1v-701h112v242h148l213 -242h131zM200 598h214c92 0 133 -66 133 -129c0 -66 -41 -125 -134 -125h-213v254zM169 900v6h101l68 -59l71 59h98v-6l-141 -130h-58z" />
    <glyph glyph-name="rcaron" unicode="&#x159;" horiz-adv-x="440" 
d="M166 493h-96v-493h103v267c0 91 62 135 133 135c38 0 62 -10 87 -30l47 90c-28 25 -74 42 -122 42c-53 0 -109 -13 -145 -76zM83 697v6h94l64 -58l67 58h91v-6l-132 -128h-55z" />
    <glyph glyph-name="Sacute" unicode="&#x15a;" horiz-adv-x="660" 
d="M506 545l85 57c-59 94 -160 118 -261 118c-126 0 -271 -56 -270 -201c0 -150 132 -185 271 -204c98 -13 179 -39 179 -115c0 -88 -93 -116 -177 -116c-81 0 -168 30 -218 115l-84 -56c64 -118 167 -159 301 -159c146 0 289 59 290 216c0 157 -137 197 -281 217
c-92 13 -170 32 -170 100c0 67 68 106 162 106c73 -1 140 -30 173 -78zM467 912v-4l-105 -132h-92v5l73 131h124z" />
    <glyph glyph-name="sacute" unicode="&#x15b;" horiz-adv-x="499" 
d="M385 372l58 68c-55 49 -114 66 -190 66c-92 0 -205 -41 -205 -150c1 -109 108 -139 201 -148c73 -7 115 -24 114 -68c-1 -46 -56 -64 -105 -64c-58 1 -127 22 -173 73l-54 -73c65 -73 145 -91 225 -91c128 0 209 64 210 156c1 127 -118 147 -209 155
c-63 6 -106 22 -107 63c0 39 42 60 105 59c49 0 91 -10 130 -46zM372 700v-4l-97 -122h-86v4l69 122h114z" />
    <glyph glyph-name="Scircumflex" unicode="&#x15c;" horiz-adv-x="660" 
d="M506 545l85 57c-59 94 -160 118 -261 118c-126 0 -271 -56 -270 -201c0 -150 132 -185 271 -204c98 -13 179 -39 179 -115c0 -88 -93 -116 -177 -116c-81 0 -168 30 -218 115l-84 -56c64 -118 167 -159 301 -159c146 0 289 59 290 216c0 157 -137 197 -281 217
c-92 13 -170 32 -170 100c0 67 68 106 162 106c73 -1 140 -30 173 -78zM311 932h60l147 -136v-6h-107l-70 60l-70 -60h-107v6z" />
    <glyph glyph-name="scircumflex" unicode="&#x15d;" horiz-adv-x="499" 
d="M385 372l58 68c-55 49 -114 66 -190 66c-92 0 -205 -41 -205 -150c1 -109 108 -139 201 -148c73 -7 115 -24 114 -68c-1 -46 -56 -64 -105 -64c-58 1 -127 22 -173 73l-54 -73c65 -73 145 -91 225 -91c128 0 209 64 210 156c1 127 -118 147 -209 155
c-63 6 -106 22 -107 63c0 39 42 60 105 59c49 0 91 -10 130 -46zM236 710h56l136 -126v-6h-99l-65 56l-65 -56h-100v6z" />
    <glyph glyph-name="Scedilla" unicode="&#x15e;" horiz-adv-x="665" 
d="M211 -189l48 40c25 -33 110 -54 126 -3c11 36 -41 62 -89 39l-24 18l26 80c-118 7 -217 53 -265 166l95 48c34 -79 122 -115 207 -115c84 0 177 28 177 116c0 76 -81 101 -179 115c-139 18 -271 54 -271 204c-1 144 144 201 270 201c106 0 213 -27 270 -134l-90 -47
c-31 51 -101 82 -177 83c-94 0 -162 -39 -162 -106c0 -68 78 -86 170 -99c144 -20 281 -54 281 -217c-1 -141 -118 -203 -248 -215l-12 -42c90 -1 113 -60 103 -108c-25 -112 -203 -104 -256 -24z" />
    <glyph glyph-name="scedilla" unicode="&#x15f;" horiz-adv-x="500" 
d="M143 -174l41 39c23 -30 103 -49 118 -3c10 33 -40 57 -84 35l-22 17l25 73c-68 4 -136 27 -190 89l54 73c46 -52 115 -72 173 -73c49 0 104 18 105 64c1 44 -41 61 -114 68c-93 8 -200 39 -201 148c0 109 113 150 205 150c76 0 135 -17 190 -66l-58 -68
c-39 36 -81 46 -130 46c-63 1 -105 -20 -105 -59c1 -112 318 -4 316 -218c-1 -84 -68 -144 -177 -154l-11 -38c75 2 102 -42 101 -79c-4 -126 -175 -126 -236 -44z" />
    <glyph glyph-name="Tcommaaccent" unicode="&#x162;" horiz-adv-x="606" 
d="M247 0v598h-230v102h572v-102h-229v-598h-37l-13 -45c93 -1 112 -58 102 -108c-24 -114 -199 -108 -251 -24l47 40c28 -43 113 -40 124 -3c11 38 -40 65 -87 40l-24 19z" />
    <glyph glyph-name="tcommaaccent" unicode="&#x163;" horiz-adv-x="407" 
d="M125 624l104 11v-143h144v-89h-145v-224c0 -57 19 -92 71 -92c20 0 43 7 63 17l30 -88c-34 -15 -64 -22 -99 -22h-12l-13 -42c89 0 110 -55 101 -101c-20 -107 -172 -120 -242 -29l40 43c29 -37 113 -51 124 -3c8 36 -41 58 -88 36l-20 18l29 91c-60 25 -87 84 -87 172
v224h-95v89h95v132z" />
    <glyph glyph-name="Tcaron" unicode="&#x164;" horiz-adv-x="606" 
d="M247 599v-599h113v599h229v101h-572v-101h230zM126 912v6h106l72 -62l75 62h103v-6l-149 -137h-61z" />
    <glyph glyph-name="tcaron" unicode="&#x165;" horiz-adv-x="456" 
d="M122 624l104 11v-143h101v-89h-102v-235c0 -52 23 -81 71 -81c20 0 43 4 63 14l30 -85c-34 -15 -64 -22 -99 -22c-107 -3 -168 58 -168 174v235h-92v89h92v132zM366 459l43 188h97l-66 -188h-74z" />
    <glyph glyph-name="Tbar" unicode="&#x166;" horiz-adv-x="613" 
d="M138 297v82h112v219h-230v102h572v-102h-229v-219h116v-82h-116v-297h-113v297h-112z" />
    <glyph glyph-name="tbar" unicode="&#x167;" horiz-adv-x="407" 
d="M51 231v74h74v98h-95v89h95v132l104 11v-143h144v-89h-145v-98h109v-74h-109v-63c0 -52 23 -81 71 -81c20 0 43 7 63 17l30 -88c-34 -15 -64 -22 -99 -22c-107 -3 -168 58 -168 174v63h-74z" />
    <glyph glyph-name="Utilde" unicode="&#x168;" horiz-adv-x="751" 
d="M561 699h111v-409c0 -206 -136 -309 -305 -303c-156 4 -289 104 -289 303v409h111v-409c0 -127 74 -196 178 -200c112 -6 194 67 194 200v409zM286 769l-58 33c18 55 56 92 112 79c22 -5 42 -20 64 -28c21 -8 48 -9 58 26l62 -25c-11 -78 -68 -95 -112 -84
c-22 6 -43 21 -64 29c-22 8 -47 5 -62 -30z" />
    <glyph glyph-name="utilde" unicode="&#x169;" 
d="M62 493h103v-264c0 -84 48 -142 134 -142c81 0 137 67 137 149v257h103v-494h-93l-6 73c-48 -55 -101 -80 -170 -80c-121 0 -208 87 -208 236v265zM225 600l-56 32c18 54 54 90 108 78c21 -6 40 -21 61 -28c21 -8 47 -9 57 25l59 -24c-10 -76 -66 -93 -108 -82
c-21 6 -41 20 -61 28c-21 7 -46 5 -60 -29z" />
    <glyph glyph-name="Ubreve" unicode="&#x16c;" horiz-adv-x="751" 
d="M561 699h111v-409c0 -206 -136 -309 -305 -303c-156 4 -289 104 -289 303v409h111v-409c0 -127 74 -196 178 -200c112 -6 194 67 194 200v409zM443 904h84c0 -89 -65 -139 -145 -139c-78 0 -152 48 -146 139h84c0 -37 24 -62 62 -62c37 0 61 25 61 62z" />
    <glyph glyph-name="ubreve" unicode="&#x16d;" 
d="M62 493h103v-264c0 -84 48 -142 134 -142c81 0 137 67 137 149v257h103v-494h-93l-6 73c-48 -55 -101 -80 -170 -80c-121 0 -208 87 -208 236v265zM369 700h82c0 -86 -63 -134 -141 -134c-76 0 -149 46 -143 134h82c0 -36 24 -60 61 -60c36 0 59 24 59 60z" />
    <glyph glyph-name="Uring" unicode="&#x16e;" horiz-adv-x="751" 
d="M561 699h111v-409c0 -206 -136 -309 -305 -303c-156 4 -289 104 -289 303v409h111v-409c0 -127 74 -196 178 -200c112 -6 194 67 194 200v409zM271 840c0 69 55 104 117 104c61 0 120 -35 120 -104c0 -68 -55 -105 -119 -105s-118 38 -118 105zM388 889
c-73 0 -72 -95 0 -95c75 0 72 95 0 95z" />
    <glyph glyph-name="uring" unicode="&#x16f;" 
d="M62 493h103v-264c0 -84 48 -142 134 -142c81 0 137 67 137 149v257h103v-494h-93l-6 73c-48 -55 -101 -80 -170 -80c-121 0 -208 87 -208 236v265zM194 624c0 67 54 101 114 101c59 0 116 -34 116 -101c0 -66 -54 -102 -115 -102c-62 0 -115 36 -115 102zM308 672
c-71 0 -70 -93 0 -93c72 0 70 93 0 93z" />
    <glyph glyph-name="Uhungarumlaut" unicode="&#x170;" horiz-adv-x="751" 
d="M672 699h-111v-409c0 -133 -82 -206 -194 -200c-104 4 -178 73 -178 200v409h-111v-409c0 -199 133 -299 289 -303c169 -6 305 97 305 303v409zM575 900v-3l-98 -127h-84v1l81 129h101zM412 901v-4l-97 -126h-85v1l82 129h100z" />
    <glyph glyph-name="uhungarumlaut" unicode="&#x171;" 
d="M165 493h-103v-265c0 -149 87 -236 208 -236c69 0 122 25 170 80l6 -73h93v494h-103v-257c0 -82 -56 -149 -137 -149c-86 0 -134 58 -134 142v264zM490 701v-3l-93 -120h-80v1l77 122h96zM335 702v-4l-92 -119h-81v1l77 122h96z" />
    <glyph glyph-name="Uogonek" unicode="&#x172;" horiz-adv-x="751" 
d="M561 700h111v-392c0 -161 -62 -258 -173 -301h1c-58 -25 -59 -99 10 -99c22 1 51 11 73 34l58 -44c-25 -43 -75 -70 -124 -75c-129 -12 -176 95 -134 165c-169 -2 -305 99 -305 302v410h111v-410c0 -137 87 -206 199 -201c105 4 173 77 173 201v410z" />
    <glyph glyph-name="uogonek" unicode="&#x173;" 
d="M555 -126l41 -52c-68 -64 -207 -63 -237 32c-12 40 2 114 87 133l-6 85c-48 -55 -101 -80 -170 -80c-130 0 -208 93 -208 250v251h103v-250c0 -92 38 -156 134 -156c81 0 137 67 137 149v257h103v-549c-49 5 -113 -17 -103 -61c5 -26 59 -51 119 -9z" />
    <glyph glyph-name="Wcircumflex" unicode="&#x174;" horiz-adv-x="1074" 
d="M806 -1l250 701h-125l-174 -539l-185 539h-72l-181 -539l-178 539h-125l254 -701h98l92 246l77 236l77 -235l93 -247h99zM507 925h59l144 -133v-6h-105l-69 58l-68 -58h-105v6z" />
    <glyph glyph-name="wcircumflex" unicode="&#x175;" horiz-adv-x="848" 
d="M469 494h-89l-118 -388l-122 388h-116l174 -496h120l58 164l49 172l48 -172l58 -164h120l173 496h-115l-122 -388zM396 710h57l142 -131v-5h-103l-67 57l-68 -57h-103v5z" />
    <glyph glyph-name="Ycircumflex" unicode="&#x176;" horiz-adv-x="686" 
d="M342 391l-193 309h-133v-5l270 -408v-287h112v287l278 408v5h-135zM316 920h57l141 -130v-6h-103l-67 58l-67 -58h-102v6z" />
    <glyph glyph-name="ycircumflex" unicode="&#x177;" horiz-adv-x="558" 
d="M542 493h-115l-98 -235l-53 -138l-49 140l-85 233h-120l197 -486l-102 -236h114zM251 710h56l137 -127v-6h-100l-65 56l-66 -56h-100v6z" />
    <glyph glyph-name="Zacute" unicode="&#x179;" 
d="M58 700v-103h346l-378 -534v-63h543v107h-385l385 542v51h-511zM461 905v-4l-110 -126h-98v5l78 125h130z" />
    <glyph glyph-name="zacute" unicode="&#x17a;" horiz-adv-x="477" 
d="M436 493h-389v-94h238l-255 -357v-42h408v101h-250l248 344v48zM362 699v-4l-98 -124h-87v4l69 124h116z" />
    <glyph glyph-name="Zdotaccent" unicode="&#x17b;" 
d="M58 700v-103h346l-378 -534v-63h543v107h-385l385 542v51h-511zM247 834c0 82 135 82 135 0c0 -83 -135 -83 -135 0z" />
    <glyph glyph-name="zdotaccent" unicode="&#x17c;" horiz-adv-x="477" 
d="M436 493h-389v-94h238l-255 -357v-42h408v101h-250l248 344v48zM185 646c0 84 133 84 133 0s-133 -84 -133 0z" />
    <glyph glyph-name="longs" unicode="&#x17f;" horiz-adv-x="316" 
d="M226 0h-104v396h-94v91h94v36c0 123 77 187 178 187c42 0 84 -14 121 -39l-40 -77c-26 17 -49 26 -75 26c-47 0 -80 -31 -80 -97v-523z" />
    <glyph glyph-name="macron" unicode="&#xaf;" horiz-adv-x="426" 
d="M35 614v88h347v-88h-347z" />
    <glyph glyph-name="Amacron" unicode="&#x100;" horiz-adv-x="768" 
d="M640 0l-67 147h-379l-66 -147h-119l314 700h122l314 -700h-119zM532 249l-148 333l-148 -333h296zM231 772v90h312v-90h-312z" />
    <glyph glyph-name="amacron" unicode="&#x101;" horiz-adv-x="636" 
d="M463 415l3 78h100v-493h-98l-5 80c-33 -63 -109 -93 -170 -93c-144 -1 -253 92 -253 260c0 165 113 257 255 257c70 0 137 -33 168 -89zM303 410c-88 0 -160 -62 -160 -163c0 -102 72 -164 160 -164c213 0 213 327 0 327zM164 604v87h311v-87h-311z" />
    <glyph glyph-name="Emacron" unicode="&#x112;" horiz-adv-x="661" 
d="M605 110v-110h-517v700h514v-109h-402v-189h386v-104h-386v-188h405zM196 783v95h301v-95h-301z" />
    <glyph glyph-name="emacron" unicode="&#x113;" horiz-adv-x="582" 
d="M547 208h-400c9 -75 71 -124 161 -124c50 0 113 19 143 53l67 -65c-51 -56 -136 -84 -212 -84c-162 0 -266 103 -266 261c0 150 105 257 259 257c159 0 267 -97 248 -298zM149 295h299c-6 78 -63 119 -146 119c-75 0 -137 -41 -153 -119zM152 600v84h295v-84h-295z" />
    <glyph glyph-name="imacron" unicode="&#x12b;" horiz-adv-x="248" 
d="M178 0h-108v481h108v-481zM22 615v86h203v-86h-203z" />
    <glyph glyph-name="Imacron" unicode="&#x12a;" horiz-adv-x="287" 
d="M199 0h-111v700h111v-700zM11 765v86h260v-86h-260z" />
    <glyph glyph-name="omacron" unicode="&#x14d;" horiz-adv-x="588" 
d="M293 503c152 0 256 -112 256 -257c0 -146 -101 -256 -256 -256c-154 0 -254 110 -254 256c0 145 101 257 254 257zM293 408c-94 0 -151 -75 -151 -162c0 -88 57 -160 151 -160c95 0 152 72 152 160c0 87 -62 162 -152 162zM149 601v86h288v-86h-288z" />
    <glyph glyph-name="Omacron" unicode="&#x14c;" horiz-adv-x="806" 
d="M405 713c239 -1 356 -177 356 -366s-115 -362 -358 -362s-358 177 -358 361c0 213 149 367 360 367zM156 345c2 -124 74 -257 247 -257c174 0 247 123 247 257c0 129 -74 263 -245 266c-162 0 -249 -113 -249 -266zM254 787v87h298v-87h-298z" />
    <glyph glyph-name="umacron" unicode="&#x16b;" 
d="M62 493h103v-264c0 -84 48 -142 134 -142c81 0 137 67 137 149v257h103v-494h-93l-6 73c-48 -55 -101 -80 -170 -80c-121 0 -208 87 -208 236v265zM168 617v81h286v-81h-286z" />
    <glyph glyph-name="Umacron" unicode="&#x16a;" horiz-adv-x="751" 
d="M561 699h111v-409c0 -206 -136 -309 -305 -303c-156 4 -289 104 -289 303v409h111v-409c0 -127 74 -196 178 -200c112 -6 194 67 194 200v409zM236 780v88h286v-88h-286z" />
    <glyph glyph-name="uni021B" unicode="&#x21b;" horiz-adv-x="407" 
d="M125 624l104 11v-143h144v-89h-145v-235c0 -52 23 -81 71 -81c20 0 43 7 63 17l30 -88c-34 -15 -64 -22 -99 -22c-107 -3 -168 58 -168 174v235h-95v89h95v132zM313 -130c0 -15 -7 -27 -44 -135h-61l21 90c-24 5 -41 21 -41 48c0 72 125 75 125 -3z" />
    <glyph glyph-name="uni021A" unicode="&#x21a;" horiz-adv-x="606" 
d="M247 0v599h-230v101h572v-101h-229v-599h-113zM364 -130c0 -15 -7 -27 -44 -135h-61l21 90c-24 5 -41 21 -41 48c0 72 125 75 125 -3z" />
    <glyph glyph-name="scommaaccent" unicode="&#x219;" horiz-adv-x="499" 
d="M443 440l-58 -68c-39 36 -81 46 -130 46c-63 1 -105 -20 -105 -59c1 -41 44 -57 107 -63c91 -8 210 -28 209 -155c-1 -92 -82 -156 -210 -156c-80 0 -160 18 -225 91l54 73c46 -51 115 -72 173 -73c49 0 104 18 105 64c1 44 -41 61 -114 68c-93 9 -200 39 -201 148
c0 109 113 150 205 150c76 0 135 -17 190 -66zM307 -135c0 -13 -6 -24 -41 -124h-57l20 83c-23 4 -39 19 -39 44c0 66 117 69 117 -3z" />
    <glyph glyph-name="Scommaaccent" unicode="&#x218;" horiz-adv-x="660" 
d="M591 602l-85 -57c-33 48 -100 77 -173 78c-94 0 -162 -39 -162 -106c0 -68 78 -87 170 -100c144 -20 281 -60 281 -217c-1 -157 -144 -216 -290 -216c-134 0 -237 41 -301 159l84 56c50 -85 137 -115 218 -115c84 0 177 28 177 116c0 76 -81 102 -179 115
c-139 19 -271 54 -271 204c-1 145 144 201 270 201c101 0 202 -24 261 -118zM400 -130c0 -15 -7 -27 -44 -135h-61l21 90c-24 5 -41 21 -41 48c0 72 125 75 125 -3z" />
    <glyph glyph-name="dotlessj" unicode="&#x237;" horiz-adv-x="243" 
d="M70 495h103v-553c0 -124 -45 -189 -156 -189c-35 0 -70 9 -104 31l37 81c21 -10 43 -16 63 -15c49 1 57 35 57 92v553z" />
    <glyph glyph-name="Aringacute" unicode="&#x1fa;" horiz-adv-x="766" 
d="M383 873c-137 0 -172 -143 -64 -199l-311 -674h121l66 147h375l66 -147h122l-312 674c110 51 73 199 -63 199zM527 247h-289l75 171l70 156l68 -153zM382 812c77 0 80 -90 0 -90c-77 0 -78 90 0 90zM531 988v-3l-110 -90h-97v3l77 90h130z" />
    <glyph glyph-name="aringacute" unicode="&#x1fb;" horiz-adv-x="636" 
d="M463 415c-31 56 -98 89 -168 89c-142 0 -255 -92 -255 -257c0 -168 109 -261 253 -260c61 0 137 30 170 93l5 -80h98v493h-100zM303 410c213 0 213 -327 0 -327c-88 0 -160 62 -160 164c0 101 72 163 160 163zM199 642c0 -61 51 -95 111 -95s112 33 112 95
s-56 94 -113 94c-58 0 -110 -32 -110 -94zM309 686c68 0 71 -86 0 -86c-68 0 -69 86 0 86zM446 877v-3l-98 -99h-87v4l69 98h116z" />
    <glyph glyph-name="AEacute" unicode="&#x1fc;" horiz-adv-x="913" 
d="M859 0v101h-319v203h300v98h-300v200h314v98h-436l-440 -700h126l103 168h231v-168h421zM438 268h-168l174 299h1l-7 -160v-139zM651 905v-4l-105 -133h-93v5l74 132h124z" />
    <glyph glyph-name="aeacute" unicode="&#x1fd;" horiz-adv-x="1012" 
d="M973 208c34 187 -78 298 -235 298c-69 0 -134 -24 -178 -85v72h-92l-3 -78c-32 56 -100 89 -169 89c-143 0 -256 -92 -256 -257c0 -171 109 -260 253 -260c57 0 138 28 171 91l1 -78h91l3 71c35 -54 93 -83 173 -83c76 0 152 20 212 84l-62 63c-35 -36 -95 -53 -150 -53
c-78 0 -147 44 -160 126h401zM304 410c219 0 219 -327 0 -327c-89 0 -160 62 -160 164c0 101 71 163 160 163zM574 295c16 78 87 119 162 119c82 0 142 -40 142 -119h-304zM653 701v-4l-97 -122h-86v4l69 122h114z" />
    <glyph glyph-name="Oslashacute" unicode="&#x1fe;" horiz-adv-x="804" 
d="M404 713c-240 0 -358 -182 -358 -367c0 -112 43 -221 130 -289l-78 -131h109l50 85c42 -17 91 -26 147 -26c243 0 356 180 358 362c0 111 -44 222 -132 292l74 126h-109l-46 -79c-42 17 -91 27 -145 27zM404 88c-35 0 -65 5 -92 14l262 444c53 -51 78 -127 77 -201
c-1 -125 -73 -257 -247 -257zM404 611c34 0 64 -6 90 -16l-261 -442c-51 48 -76 121 -76 192c-3 129 73 266 247 266zM558 911v-4l-105 -133h-93v5l74 132h124z" />
    <glyph glyph-name="oslashacute" unicode="&#x1ff;" horiz-adv-x="588" 
d="M293 503c-153 0 -254 -112 -254 -257c0 -83 32 -155 88 -200l-64 -108h99l39 66c28 -9 59 -14 92 -14c155 0 256 110 256 256c0 80 -32 151 -88 197l63 106h-99l-37 -63c-29 11 -61 17 -95 17zM293 408c15 0 31 -3 44 -7l-156 -264c-25 27 -39 65 -39 109
c0 87 57 162 151 162zM293 86c-14 0 -28 1 -40 5l154 260c24 -28 38 -65 38 -105c0 -88 -57 -160 -152 -160zM431 699v-3l-94 -120h-84v4l67 119h111z" />
    <glyph glyph-name="Wgrave" unicode="&#x1e80;" horiz-adv-x="1074" 
d="M1056 700l-250 -701h-99l-93 247l-77 235l-77 -236l-92 -246h-98l-254 701h125l178 -539l181 539h72l185 -539l174 539h125zM401 898v4h122l73 -123v-4h-92z" />
    <glyph glyph-name="wgrave" unicode="&#x1e81;" horiz-adv-x="848" 
d="M380 494h89l118 -388l122 388h115l-173 -496h-120l-58 164l-48 172l-49 -172l-58 -164h-120l-174 496h116l122 -388zM292 698v4h116l70 -118v-4h-87z" />
    <glyph glyph-name="Wacute" unicode="&#x1e82;" horiz-adv-x="1074" 
d="M806 -1l250 701h-125l-174 -539l-185 539h-72l-181 -539l-178 539h-125l254 -701h98l92 246l77 236l77 -235l93 -247h99zM673 902v-4l-105 -122h-92v4l74 122h123z" />
    <glyph glyph-name="wacute" unicode="&#x1e83;" horiz-adv-x="848" 
d="M469 494h-89l-118 -388l-122 388h-116l174 -496h120l58 164l49 172l48 -172l58 -164h120l173 496h-115l-122 -388zM560 699v-3l-100 -116h-87v5l69 114h118z" />
    <glyph glyph-name="Wdieresis" unicode="&#x1e84;" horiz-adv-x="1074" 
d="M806 -1l250 701h-125l-174 -539l-185 539h-72l-181 -539l-178 539h-125l254 -701h98l92 246l77 236l77 -235l93 -247h99zM354 831c0 82 124 82 124 0s-124 -82 -124 0zM594 831c0 82 125 82 125 0s-125 -82 -125 0z" />
    <glyph glyph-name="wdieresis" unicode="&#x1e85;" horiz-adv-x="848" 
d="M469 494h-89l-118 -388l-122 388h-116l174 -496h120l58 164l49 172l48 -172l58 -164h120l173 496h-115l-122 -388zM255 653c0 76 115 76 115 0c0 -77 -115 -77 -115 0zM478 653c0 76 116 76 116 0c0 -77 -116 -77 -116 0z" />
    <glyph glyph-name="Ygrave" unicode="&#x1ef2;" horiz-adv-x="686" 
d="M149 700l193 -309l199 309h135v-5l-278 -408v-287h-112v287l-270 408v5h133zM208 902v3h114l68 -124v-4h-85z" />
    <glyph glyph-name="ygrave" unicode="&#x1ef3;" horiz-adv-x="558" 
d="M427 493h115l-311 -722h-114l102 236l-197 486h120l85 -233l49 -140l53 138zM162 698v4h111l67 -122v-4h-84z" />
    <glyph glyph-name="_375" unicode="&#x394;" horiz-adv-x="765" 
d="M419 700l335 -700h-750l334 700h81zM379 547l-226 -458h446z" />
    <glyph glyph-name="_376" unicode="&#x3a9;" horiz-adv-x="801" 
d="M382 611c-168 0 -250 -128 -250 -256c-1 -109 58 -220 174 -256v-99h-251v96h100c-95 59 -132 162 -132 266c0 195 142 351 359 351c218 0 360 -156 360 -351c0 -104 -33 -197 -132 -266h100v-96h-251v99c115 36 174 147 174 256c-1 128 -83 256 -251 256z" />
    <glyph glyph-name="pi" unicode="&#x3c0;" horiz-adv-x="682" 
d="M237 0h-103v403h-108v90h622v-90h-109v-247c0 -55 20 -90 89 -76l9 -83c-133 -25 -201 32 -201 157v249h-199v-403z" />
    <glyph glyph-name="commaaccent" horiz-adv-x="462" 
d="M319 -133c0 -16 -7 -29 -45 -142h-62l22 95c-25 5 -42 21 -42 49c0 10 3 19 6 26c23 55 121 43 121 -28z" />
    <glyph glyph-name="commaaccent.alt" horiz-adv-x="462" 
d="M179 641c0 15 6 27 44 142h63l-22 -95c24 -5 41 -22 41 -50c0 -9 -2 -18 -6 -25c-22 -55 -120 -44 -120 28z" />
    <glyph glyph-name="zero.tf" horiz-adv-x="700" 
d="M168 409v-117c0 -266 362 -266 362 0v117c0 262 -362 265 -362 0zM57 292v117c0 405 585 404 585 0v-117c0 -405 -585 -406 -585 0z" />
    <glyph glyph-name="one.tf" horiz-adv-x="700" 
d="M123 0v95h181v464l-164 -45v101l276 85v-605h189v-95h-482z" />
    <glyph glyph-name="two.tf" horiz-adv-x="700" 
d="M185 501h-111c9 167 149 208 281 208c137 0 274 -54 275 -215c0 -169 -137 -213 -278 -213c-69 0 -169 -17 -169 -104v-72h446v-105h-559v177c0 160 146 206 281 206c63 0 169 19 169 109c0 85 -81 118 -164 120c-84 0 -169 -27 -171 -111z" />
    <glyph glyph-name="three.tf" horiz-adv-x="700" 
d="M351 313h-111v92h104c88 0 162 33 163 99c0 48 -41 104 -160 104c-68 0 -162 -20 -162 -98h-112c0 150 148 200 274 200c141 0 270 -69 271 -206c0 -61 -43 -127 -110 -145c72 -20 126 -87 126 -153c0 -156 -144 -216 -289 -216c-130 0 -282 51 -283 208h113
c0 -85 106 -107 171 -107c87 0 171 38 171 114c0 50 -36 108 -166 108z" />
    <glyph glyph-name="four.tf" horiz-adv-x="700" 
d="M409 699h144v-452h84v-108h-84v-139h-111v139h-387l-12 110zM170 247h272v332z" />
    <glyph glyph-name="five.tf" horiz-adv-x="700" 
d="M594 699v-105h-393v-148h158c159 0 274 -72 274 -223c0 -148 -122 -230 -274 -230c-147 0 -282 51 -283 213h112c0 -88 97 -108 170 -108c85 0 163 40 163 125c1 80 -69 119 -162 119h-267v357h502z" />
    <glyph glyph-name="six.tf" horiz-adv-x="700" 
d="M184 493v-127c37 56 114 80 177 80c139 0 285 -59 285 -228c0 -156 -147 -228 -286 -228c-140 0 -288 72 -288 230v272c0 150 135 220 283 220c149 0 279 -60 282 -199h-113c-1 67 -83 101 -168 101c-79 0 -172 -41 -172 -121zM360 91c87 0 175 37 175 127
c0 86 -83 130 -174 130s-178 -43 -177 -130c0 -89 87 -127 176 -127z" />
    <glyph glyph-name="seven.tf" horiz-adv-x="700" 
d="M292 0h-129l309 593h-376v107h519l7 -64z" />
    <glyph glyph-name="eight.tf" horiz-adv-x="700" 
d="M348 317c-82 0 -182 -33 -183 -114c-1 -70 82 -116 183 -116s182 45 182 116c-1 81 -96 114 -182 114zM51 204c1 65 45 131 120 157c-63 23 -103 78 -103 144c0 142 137 208 281 208c143 0 284 -60 285 -208c0 -61 -35 -115 -106 -140c75 -26 120 -97 120 -161
c3 -160 -150 -220 -299 -220c-154 0 -300 59 -298 220zM183 508c1 -73 80 -108 167 -108s165 35 167 108c1 72 -80 111 -168 111c-95 0 -168 -46 -166 -111z" />
    <glyph glyph-name="nine.tf" horiz-adv-x="700" 
d="M516 209v127c-37 -56 -114 -81 -177 -81c-139 0 -285 60 -285 229c0 156 147 228 286 228c140 0 288 -73 288 -230v-272c0 -150 -142 -220 -283 -220c-149 0 -283 59 -285 199h113c1 -67 86 -102 171 -102c73 0 172 42 172 122zM340 611c-88 0 -175 -37 -175 -127
c0 -89 83 -130 174 -130s177 43 177 130c-1 89 -87 127 -176 127z" />
    <glyph glyph-name="Euro.tf" horiz-adv-x="700" 
d="M594 108l31 -104c-38 -12 -81 -18 -122 -18c-205 0 -311 104 -345 251h-76v84h64c-1 8 -1 17 -1 24c0 10 0 20 1 30h-64v85h78c35 143 145 252 343 252c36 0 72 -5 106 -15l-34 -100c-24 7 -48 9 -72 9c-122 0 -196 -59 -229 -146h239l-20 -85h-243c-1 -9 -1 -20 -1 -29
c0 -8 0 -18 1 -25h228l-18 -84h-188c31 -87 105 -146 231 -146c30 0 61 6 91 17z" />
    <glyph glyph-name="cent.tf" horiz-adv-x="700" 
d="M509 127l64 -75c-39 -38 -86 -63 -139 -71v-71h-97v72c-121 23 -208 122 -208 253c0 125 82 227 208 252v70h97v-69c52 -9 99 -32 139 -71l-62 -67c-31 30 -81 48 -121 48c-86 0 -158 -66 -158 -163c0 -98 72 -163 158 -163c40 0 88 24 119 55z" />
    <glyph glyph-name="sterling.tf" horiz-adv-x="700" 
d="M244 487c0 -40 10 -79 19 -117h220v-94h-201c7 -56 -2 -131 -74 -171c136 0 280 1 416 1v-106h-545v105c76 39 98 100 92 171h-92v94h73c-9 35 -20 76 -20 115c0 145 100 225 251 225c134 0 232 -57 237 -204h-102c-5 76 -58 105 -134 105c-97 0 -140 -52 -140 -124z" />
    <glyph glyph-name="florin.tf" horiz-adv-x="700" 
d="M289 -2v398h-144v91h144v36c0 123 77 187 178 187c42 0 84 -14 121 -39l-40 -77c-26 17 -49 26 -75 26c-47 0 -80 -31 -80 -97v-36h163v-91h-163v-398c0 -123 -74 -187 -175 -187c-42 0 -71 11 -108 36l39 76c26 -17 37 -22 63 -22c47 0 77 31 77 97z" />
    <glyph glyph-name="yen.tf" horiz-adv-x="700" 
d="M135 129v82h155v54h-155v83h115l-230 347v5h133l193 -309l200 309h134v-5l-236 -347h114v-83h-156v-54h156v-82h-156v-129h-112v129h-155z" />
    <glyph glyph-name="dollar.tf" horiz-adv-x="700" 
d="M622 580l-91 -43c-29 49 -108 80 -177 80c-82 0 -172 -26 -171 -104c0 -70 82 -85 174 -98c142 -20 292 -45 292 -213c0 -133 -119 -202 -239 -210v-98h-105v95c-108 8 -214 55 -261 161l100 42c30 -67 124 -105 207 -105c88 0 184 31 184 115c0 75 -91 99 -188 113
c-138 17 -273 42 -274 198c-1 129 118 187 232 199v89h105v-89c86 -11 168 -43 212 -132z" />
    <glyph glyph-name="zero.denom" horiz-adv-x="395" 
d="M115 205v-54c0 -117 163 -118 163 0v54c0 120 -163 121 -163 0zM39 152v54c0 215 317 214 317 0v-54c0 -216 -317 -216 -317 0z" />
    <glyph glyph-name="one.denom" horiz-adv-x="265" 
d="M36 0v68h62v209l-54 -13v68l132 32v-296h64v-68h-204z" />
    <glyph glyph-name="two.denom" horiz-adv-x="367" 
d="M117 259h-77c1 80 73 112 140 112c82 0 149 -31 149 -115c0 -162 -212 -75 -212 -164v-16h207v-76h-286v92c0 149 212 77 212 164c0 35 -28 47 -69 47c-33 0 -63 -11 -64 -44z" />
    <glyph glyph-name="three.denom" horiz-adv-x="373" 
d="M185 157h-57v61h53c38 0 67 7 68 43c0 15 -15 43 -67 43c-32 0 -66 -6 -72 -43h-70c0 78 75 110 142 110c70 0 144 -35 145 -110c0 -32 -18 -65 -50 -74c37 -11 59 -46 59 -77c0 -89 -85 -118 -155 -118s-146 31 -147 113h81c6 -34 39 -41 68 -41c32 0 71 10 71 44
c0 23 -16 49 -69 49z" />
    <glyph glyph-name="four.denom" horiz-adv-x="376" 
d="M194 364h103v-227h42v-69h-42v-68h-77v68h-192l-4 66zM220 137v152l-114 -152h114z" />
    <glyph glyph-name="five.denom" horiz-adv-x="364" 
d="M310 364v-68h-190v-61h63c84 0 150 -34 149 -122c0 -82 -66 -123 -146 -123c-77 0 -148 30 -149 115h77c1 -33 34 -44 69 -44c44 0 70 18 70 52c0 32 -21 54 -70 54h-139v197h266z" />
    <glyph glyph-name="six.denom" horiz-adv-x="380" 
d="M194 62c36 0 72 14 72 50c0 37 -34 53 -71 53c-38 0 -73 -17 -72 -52c0 -37 34 -51 71 -51zM195 231c73 0 149 -25 149 -119c0 -84 -77 -118 -150 -118s-149 38 -149 119v139c0 81 73 118 146 118c78 0 147 -31 148 -104h-78c-3 25 -30 36 -69 36c-36 0 -69 -13 -69 -50
v-47c17 17 48 26 72 26z" />
    <glyph glyph-name="seven.denom" horiz-adv-x="319" 
d="M140 0h-88l151 294h-175v70h273l4 -33z" />
    <glyph glyph-name="eight.denom" horiz-adv-x="387" 
d="M116 106c-1 -29 34 -50 77 -50s78 20 77 50c0 33 -37 51 -76 51s-78 -16 -78 -51zM37 106c0 34 23 69 62 82c-33 13 -53 43 -53 76c0 76 71 109 147 109c74 0 149 -33 149 -109c0 -30 -16 -58 -53 -74c39 -13 61 -51 61 -84c1 -87 -79 -116 -157 -115
c-77 0 -158 28 -156 115zM123 263c1 -30 30 -45 70 -45s68 15 69 45c1 33 -37 46 -69 46c-33 0 -70 -14 -70 -46z" />
    <glyph glyph-name="nine.denom" horiz-adv-x="380" 
d="M186 301c-35 0 -71 -13 -71 -50c0 -36 33 -52 70 -52c38 0 73 16 73 52s-35 50 -72 50zM185 132c-72 0 -149 25 -149 119c0 84 78 118 150 118c74 0 149 -37 149 -119v-138c0 -82 -73 -119 -146 -119c-78 0 -146 31 -148 105h78c3 -26 30 -37 69 -37c36 0 69 14 69 51v46
c-17 -17 -48 -26 -72 -26z" />
    <glyph glyph-name="zero.num" horiz-adv-x="396" 
d="M115 549v-54c0 -117 163 -118 163 0v54c0 120 -163 121 -163 0zM39 496v54c0 215 318 214 318 0v-54c0 -216 -318 -216 -318 0z" />
    <glyph glyph-name="one.num" horiz-adv-x="267" 
d="M37 347v68h62v209l-54 -12v67l132 33v-297h64v-68h-204z" />
    <glyph glyph-name="two.num" horiz-adv-x="368" 
d="M118 598h-77c1 80 73 112 140 112c82 0 149 -31 149 -115c0 -162 -212 -75 -212 -164v-16h207v-76h-286v92c0 149 212 77 212 164c0 35 -28 47 -69 47c-33 0 -63 -11 -64 -44z" />
    <glyph glyph-name="three.num" horiz-adv-x="372" 
d="M184 498h-56v61h52c38 0 67 7 68 43c0 15 -15 43 -67 43c-32 0 -66 -6 -72 -43h-69c0 78 74 110 142 110c69 0 144 -35 144 -110c0 -32 -18 -65 -50 -74c38 -11 59 -46 59 -77c0 -89 -84 -118 -155 -118c-69 0 -146 31 -147 113h81c6 -34 40 -41 69 -41c31 0 70 10 70 44
c0 23 -16 49 -69 49z" />
    <glyph glyph-name="four.num" horiz-adv-x="374" 
d="M194 702h103v-227h42v-69h-42v-68h-77v68h-192l-4 66zM220 475v152l-114 -152h114z" />
    <glyph glyph-name="five.num" horiz-adv-x="364" 
d="M310 701v-69h-190v-60h63c85 0 150 -35 149 -122c0 -82 -65 -123 -146 -123c-77 0 -147 29 -148 115h77c0 -33 33 -44 68 -44c45 0 71 18 71 52c0 32 -22 54 -71 54h-139v197h266z" />
    <glyph glyph-name="six.num" horiz-adv-x="379" 
d="M194 402c35 0 71 14 71 51c0 36 -34 52 -71 52s-73 -17 -72 -52c0 -37 35 -51 72 -51zM194 571c73 0 149 -24 149 -118c0 -84 -77 -119 -149 -119c-74 0 -150 38 -150 120v138c0 81 73 118 147 118c78 0 146 -31 147 -104h-78c-3 25 -30 37 -69 37c-36 0 -69 -14 -69 -51
v-47c18 18 48 26 72 26z" />
    <glyph glyph-name="seven.num" horiz-adv-x="321" 
d="M140 335h-88l151 295h-175v70h273l4 -34z" />
    <glyph glyph-name="eight.num" horiz-adv-x="387" 
d="M116 445c0 -29 34 -50 78 -50c42 0 77 20 76 50c0 33 -37 51 -76 51s-78 -16 -78 -51zM37 445c0 34 23 69 62 82c-33 13 -53 43 -53 76c0 76 72 109 147 109c74 0 149 -33 149 -109c0 -30 -16 -58 -53 -74c39 -13 61 -51 61 -84c1 -87 -79 -116 -157 -115
c-76 0 -157 28 -156 115zM124 602c0 -30 29 -45 70 -45c39 0 68 15 68 45c1 33 -36 46 -69 46s-70 -14 -69 -46z" />
    <glyph glyph-name="nine.num" horiz-adv-x="379" 
d="M185 643c-35 0 -71 -14 -71 -51c0 -36 33 -52 70 -52c38 0 73 17 73 52c0 37 -35 51 -72 51zM184 474c-72 0 -149 24 -149 118c0 84 78 119 150 119c74 0 149 -38 149 -120v-138c0 -81 -73 -118 -146 -118c-78 0 -146 31 -148 104h78c3 -25 30 -37 69 -37
c36 0 69 14 69 51v47c-17 -18 -48 -26 -72 -26z" />
    <glyph glyph-name="parenleft.case" horiz-adv-x="357" 
d="M276 800l52 -71c-116 -90 -175 -227 -176 -373c0 -153 58 -282 176 -373l-56 -76c-150 98 -224 270 -227 436c-4 172 74 352 231 457z" />
    <glyph glyph-name="parenright.case" horiz-adv-x="356" 
d="M28 733l53 71c157 -105 234 -285 230 -457c-3 -166 -76 -338 -227 -436l-54 78c118 90 175 218 174 371c0 146 -59 283 -176 373z" />
    <glyph glyph-name="hyphen.case" horiz-adv-x="504" 
d="M70 295v92h364v-92h-364z" />
    <glyph glyph-name="bracketleft.case" horiz-adv-x="355" 
d="M313 -96h-226v886h226v-93h-121v-699h121v-94z" />
    <glyph glyph-name="bracketright.case" horiz-adv-x="355" 
d="M268 -96h-226v95h121v699h-121v93h226v-887z" />
    <glyph glyph-name="braceleft.case" horiz-adv-x="354" 
d="M311 -10v-81c-147 -25 -201 37 -201 167v132c0 43 -8 93 -72 93v78c64 0 72 50 72 92v139c0 123 61 184 201 158v-80c-70 16 -94 -7 -94 -82v-135c0 -58 3 -110 -70 -131c73 -20 70 -74 70 -132v-137c0 -75 17 -91 94 -81z" />
    <glyph glyph-name="bar.case" horiz-adv-x="278" 
d="M190 754v-834h-102v834h102z" />
    <glyph glyph-name="braceright.case" horiz-adv-x="353" 
d="M42 -91v81c77 -10 94 6 94 81v138c0 57 -3 111 70 131c-73 21 -70 73 -70 132v134c0 75 -24 99 -94 83v79c140 26 201 -34 201 -158v-138c0 -42 8 -93 72 -93v-78c-64 0 -72 -50 -72 -92v-133c0 -130 -54 -192 -201 -167z" />
    <glyph glyph-name="guilsinglleft.case" horiz-adv-x="371" 
d="M55 342l139 220h111v-1l-138 -219c37 -60 74 -120 111 -179c9 -15 17 -29 27 -43h-111z" />
    <glyph glyph-name="guilsinglright.case" horiz-adv-x="370" 
d="M176 561l139 -220l-139 -222h-110l137 222l-137 219v1h110z" />
    <glyph glyph-name="guillemotleft.case" horiz-adv-x="527" 
d="M55 343l139 221h111v-1l-138 -220c46 -73 92 -148 138 -221h-111zM214 343l139 221h110v-1l-137 -220l137 -221h-110z" />
    <glyph glyph-name="guillemotright.case" horiz-adv-x="529" 
d="M335 568l138 -221l-138 -221h-111l137 221l-137 219v2h111zM176 568l139 -221l-139 -221h-111l138 221l-138 219v2h111z" />
    <glyph glyph-name="endash.case" horiz-adv-x="608" 
d="M71 287v92h466v-92h-466z" />
    <glyph glyph-name="emdash.case" horiz-adv-x="703" 
d="M69 286v94h565v-94h-565z" />
    <glyph glyph-name="bullet.case" horiz-adv-x="400" 
d="M201 211c-69 0 -122 47 -122 118c0 72 53 119 122 119c68 0 120 -47 120 -119c0 -71 -52 -118 -120 -118z" />
    <glyph glyph-name="periodcentered.case" horiz-adv-x="273" 
d="M70 333c0 88 133 88 133 0s-133 -88 -133 0z" />
    <glyph glyph-name="zerosuperior" unicode="&#x2070;" horiz-adv-x="396" 
d="M115 667v-54c0 -117 163 -118 163 0v54c0 120 -163 121 -163 0zM39 614v54c0 215 318 214 318 0v-54c0 -216 -318 -216 -318 0z" />
    <glyph glyph-name="foursuperior" unicode="&#x2074;" horiz-adv-x="378" 
d="M194 823h103v-227h45v-68h-45v-69h-77v69h-192l-4 65zM220 596v153l-114 -153h114z" />
    <glyph glyph-name="fivesuperior" unicode="&#x2075;" horiz-adv-x="364" 
d="M310 823v-69h-190v-60h63c84 0 150 -35 149 -122c0 -83 -66 -123 -146 -123c-77 0 -148 29 -149 115h77c1 -33 34 -44 69 -44c44 0 70 18 70 52c0 32 -21 54 -70 54h-139v197h266z" />
    <glyph glyph-name="sixsuperior" unicode="&#x2076;" horiz-adv-x="377" 
d="M191 520c36 0 72 14 72 50c0 37 -34 53 -71 53c-38 0 -73 -17 -72 -52c0 -37 34 -51 71 -51zM192 689c73 0 149 -25 149 -119c0 -84 -77 -118 -150 -118s-149 38 -149 119v139c0 81 73 118 146 118c78 0 147 -31 148 -104h-78c-3 25 -30 36 -69 36c-36 0 -69 -13 -69 -50
v-47c17 17 48 26 72 26z" />
    <glyph glyph-name="sevensuperior" unicode="&#x2077;" horiz-adv-x="320" 
d="M140 458h-88l151 295h-175v70h273l4 -34z" />
    <glyph glyph-name="eightsuperior" unicode="&#x2078;" horiz-adv-x="387" 
d="M116 560c0 -29 34 -49 78 -49c42 0 77 20 76 49c0 33 -37 51 -76 51s-78 -16 -78 -51zM37 560c0 34 23 69 62 83c-33 13 -53 42 -53 75c0 76 72 109 147 109c74 0 149 -32 149 -109c0 -30 -16 -58 -53 -73c39 -14 61 -51 61 -85c1 -87 -79 -115 -157 -115
c-76 0 -157 28 -156 115zM124 717c0 -30 29 -45 70 -45c39 0 68 15 68 45c1 33 -36 46 -69 46s-70 -14 -69 -46z" />
    <glyph glyph-name="ninesuperior" unicode="&#x2079;" horiz-adv-x="378" 
d="M186 761c-35 0 -71 -14 -71 -50c0 -37 33 -53 70 -53c38 0 73 17 73 52c0 37 -35 51 -72 51zM185 592c-72 0 -149 25 -149 119c0 84 78 118 150 118c74 0 149 -38 149 -119v-139c0 -81 -73 -118 -146 -118c-78 0 -146 31 -148 104h78c3 -25 30 -36 69 -36
c36 0 69 13 69 50v47c-17 -17 -48 -26 -72 -26z" />
    <glyph glyph-name="zeroinferior" unicode="&#x2080;" horiz-adv-x="396" 
d="M115 124v-55c0 -116 163 -117 163 0v55c0 120 -163 121 -163 0zM39 71v53c0 215 318 215 318 0v-53c0 -216 -318 -216 -318 0z" />
    <glyph glyph-name="oneinferior" unicode="&#x2081;" horiz-adv-x="266" 
d="M36 -85v68h62v209l-53 -12v67l131 33v-297h65v-68h-205z" />
    <glyph glyph-name="twoinferior" unicode="&#x2082;" horiz-adv-x="368" 
d="M118 174h-77c0 80 72 112 140 112c82 0 149 -31 149 -115c0 -162 -213 -75 -213 -164v-16h208c0 -25 -1 -51 -1 -76h-285v92c0 149 211 77 211 164c0 35 -27 47 -68 47c-33 0 -63 -11 -64 -44z" />
    <glyph glyph-name="threeinferior" unicode="&#x2083;" horiz-adv-x="371" 
d="M184 74h-57v61h53c37 0 67 7 68 43c0 15 -15 44 -68 44c-32 0 -66 -7 -72 -43h-69c0 78 75 109 142 109c70 0 144 -35 145 -110c0 -32 -18 -64 -51 -74c38 -11 59 -46 59 -77c0 -89 -84 -117 -154 -117s-146 30 -147 113h81c6 -34 39 -42 68 -42c32 0 71 10 71 45
c0 23 -16 48 -69 48z" />
    <glyph glyph-name="fourinferior" unicode="&#x2084;" horiz-adv-x="376" 
d="M194 279h103v-227h42v-69h-42v-68h-77v68h-192l-4 66zM220 52v152l-114 -152h114z" />
    <glyph glyph-name="fiveinferior" unicode="&#x2085;" horiz-adv-x="364" 
d="M310 281v-68h-190v-60h63c84 0 150 -35 149 -123c0 -82 -66 -122 -146 -122c-77 0 -148 29 -149 114h77c1 -33 34 -44 69 -44c44 0 70 19 70 52c0 32 -21 54 -70 54h-139v197h266z" />
    <glyph glyph-name="sixinferior" unicode="&#x2086;" horiz-adv-x="380" 
d="M194 -22c36 0 72 14 72 51c0 36 -34 52 -71 52c-38 0 -73 -17 -72 -52c0 -37 34 -51 71 -51zM195 147c73 0 149 -24 149 -118c0 -84 -77 -119 -150 -119s-149 38 -149 120v138c0 81 73 118 146 118c78 0 147 -31 148 -104h-78c-3 25 -30 37 -69 37c-36 0 -69 -14 -69 -51
v-47c17 18 48 26 72 26z" />
    <glyph glyph-name="seveninferior" unicode="&#x2087;" horiz-adv-x="321" 
d="M140 -85h-88l151 294h-175v70h273l4 -33z" />
    <glyph glyph-name="eightinferior" unicode="&#x2088;" horiz-adv-x="388" 
d="M118 23c-1 -29 33 -50 77 -50c42 0 77 20 77 50c0 32 -38 51 -76 51c-40 0 -78 -16 -78 -51zM38 23c0 34 23 69 63 82c-33 13 -54 42 -54 76c0 76 72 109 147 109s149 -33 149 -109c0 -31 -15 -59 -53 -74c39 -13 62 -51 62 -84c0 -87 -80 -116 -158 -115
c-76 0 -157 28 -156 115zM125 180c1 -31 29 -45 70 -45c40 0 68 14 69 45c0 32 -37 46 -70 46s-70 -14 -69 -46z" />
    <glyph glyph-name="nineinferior" unicode="&#x2089;" horiz-adv-x="379" 
d="M186 217c-35 0 -71 -14 -71 -50c0 -37 33 -53 70 -53c38 0 73 17 73 52c0 37 -35 51 -72 51zM185 48c-72 0 -149 25 -149 119c0 84 78 118 150 118c74 0 149 -38 149 -119v-139c0 -81 -73 -118 -146 -118c-78 0 -146 31 -148 104h78c3 -25 30 -36 69 -36
c36 0 69 13 69 50v47c-17 -17 -48 -26 -72 -26z" />
    <glyph glyph-name="afii61289" unicode="&#x2113;" horiz-adv-x="396" 
d="M201 242v-95c0 -60 58 -83 130 -66v-69c-125 -41 -231 -9 -231 151l-49 -24l-14 46c21 9 42 19 62 30v333c0 119 37 167 156 167c112 0 122 -102 110 -193c-13 -111 -85 -208 -164 -280zM198 548c0 -56 -1 -165 -1 -237c49 56 110 143 120 220c6 51 14 132 -60 132
c-40 0 -59 -59 -59 -115z" />
    <glyph glyph-name="uni2117" unicode="&#x2117;" horiz-adv-x="823" 
d="M411 715c232 0 362 -167 362 -365s-130 -365 -362 -365c-231 0 -361 167 -361 365s130 365 361 365zM142 350c1 -158 98 -282 269 -282c172 0 269 124 269 282s-97 283 -269 283c-171 0 -268 -125 -269 -283zM366 270h89c183 0 177 262 0 262h-174v-371h85v109zM366 455
h89c5 0 8 -1 11 -3c60 -9 55 -108 -12 -108h-88v111z" />
    <glyph glyph-name="Omega" unicode="&#x2126;" horiz-adv-x="815" 
d="M407 611c-168 0 -250 -128 -250 -256c-1 -109 58 -220 174 -256v-99h-251v96h100c-95 59 -132 162 -132 266c0 195 142 351 359 351c218 0 360 -156 360 -351c0 -104 -33 -197 -132 -266h100v-96h-251v99c115 36 174 147 174 256c-1 128 -83 256 -251 256z" />
    <glyph glyph-name="estimated" unicode="&#x212e;" horiz-adv-x="635" 
d="M326 -7c-148 0 -268 102 -268 296c0 196 119 297 267 297s282 -80 262 -323h-402v-170c38 -35 88 -53 141 -53c78 0 142 24 190 93l37 -29c-60 -85 -134 -111 -227 -111zM325 539c-54 0 -102 -13 -140 -46v-183h283v186c-37 29 -86 43 -143 43z" />
    <glyph glyph-name="onethird" unicode="&#x2153;" horiz-adv-x="776" 
d="M47 340v68h62v209l-54 -13v67l132 33v-296h64v-68h-204zM591 158h-56v61h52c38 0 67 7 68 43c0 15 -15 44 -67 44c-32 0 -66 -7 -72 -43h-69c0 78 74 109 142 109c69 0 144 -35 144 -110c0 -32 -18 -64 -50 -74c38 -11 59 -46 59 -77c0 -89 -84 -117 -155 -117
c-69 0 -146 30 -147 113h81c6 -34 40 -42 69 -42c31 0 70 10 70 45c0 23 -16 48 -69 48zM508 706h90l-384 -710h-89z" />
    <glyph glyph-name="twothirds" unicode="&#x2154;" horiz-adv-x="856" 
d="M670 158h-57v61h53c38 0 67 7 68 43c0 16 -15 44 -67 44c-32 0 -66 -7 -72 -43h-70c0 78 75 109 142 109c69 0 145 -35 145 -110c0 -32 -18 -64 -50 -74c37 -11 59 -46 59 -77c0 -89 -85 -117 -155 -117s-146 30 -147 113h81c6 -34 39 -42 68 -42c32 0 71 10 71 45
c0 23 -16 48 -69 48zM586 706h91l-385 -710h-89zM127 597h-78c1 80 73 112 140 112c83 0 149 -32 149 -116c0 -162 -212 -75 -212 -164v-16h206c0 -25 -1 -51 -1 -76h-284v92c0 150 212 78 212 164c0 35 -28 48 -68 48c-33 0 -64 -11 -64 -44z" />
    <glyph glyph-name="oneeighth" unicode="&#x215b;" horiz-adv-x="796" 
d="M47 340v68h62v209l-54 -13v67l132 33v-296h64v-68h-204zM508 706h90l-384 -710h-89zM527 107c-1 -29 33 -50 77 -50c42 0 77 20 77 50c0 32 -37 51 -76 51c-40 0 -78 -16 -78 -51zM447 107c0 34 24 69 63 82c-33 13 -54 42 -54 76c0 76 72 109 147 109s150 -33 150 -109
c0 -31 -16 -59 -54 -74c39 -13 62 -51 62 -84c1 -87 -80 -116 -158 -115c-76 0 -157 28 -156 115zM534 264c1 -31 30 -45 70 -45s68 14 69 45c1 32 -37 46 -70 46c-32 0 -70 -14 -69 -46z" />
    <glyph glyph-name="threeeighths" unicode="&#x215c;" horiz-adv-x="860" 
d="M574 706h91l-385 -710h-89zM591 107c-1 -29 34 -50 77 -50s78 20 77 50c0 32 -37 51 -76 51s-78 -16 -78 -51zM512 107c0 34 23 69 62 82c-33 13 -53 42 -53 76c0 76 71 109 147 109c74 0 149 -33 149 -109c0 -31 -16 -59 -53 -74c39 -13 61 -51 61 -84
c1 -87 -79 -116 -157 -115c-77 0 -158 28 -156 115zM598 264c1 -31 30 -45 70 -45s68 14 69 45c1 32 -37 46 -69 46c-33 0 -70 -14 -70 -46zM189 493h-56v61h52c38 0 68 7 68 44c0 15 -14 43 -67 43c-32 0 -66 -7 -72 -43h-69c0 78 74 109 142 109c69 0 144 -34 145 -110
c0 -32 -18 -64 -51 -74c38 -11 59 -46 59 -76c0 -90 -84 -118 -155 -118c-69 0 -146 31 -147 113h81c6 -34 40 -42 69 -42c32 0 71 11 71 45c0 23 -17 48 -70 48z" />
    <glyph glyph-name="fiveeighths" unicode="&#x215d;" horiz-adv-x="859" 
d="M573 706h91l-385 -710h-89zM590 107c-1 -29 34 -50 77 -50s78 20 77 50c0 32 -37 51 -76 51s-78 -16 -78 -51zM511 107c0 34 23 69 62 82c-33 13 -53 42 -53 76c0 76 71 109 147 109c74 0 149 -33 149 -109c0 -31 -16 -59 -53 -74c39 -13 61 -51 61 -84
c1 -87 -79 -116 -157 -115c-77 0 -158 28 -156 115zM597 264c1 -31 30 -45 70 -45s68 14 69 45c1 32 -37 46 -69 46c-33 0 -70 -14 -70 -46zM314 700v-69h-190v-60h63c85 0 150 -35 149 -122c0 -82 -65 -123 -146 -123c-77 0 -147 29 -148 115h77c0 -33 33 -44 68 -44
c45 0 71 18 71 52c0 32 -22 54 -71 54h-139v197h266z" />
    <glyph glyph-name="seveneighths" unicode="&#x215e;" horiz-adv-x="776" 
d="M483 706h90l-384 -710h-89zM507 107c-1 -29 34 -50 77 -50s78 20 77 50c0 32 -37 51 -76 51s-78 -16 -78 -51zM428 107c0 34 23 69 62 82c-33 13 -53 42 -53 76c0 76 71 109 147 109c74 0 149 -33 149 -109c0 -31 -16 -59 -53 -74c39 -13 61 -51 61 -84
c1 -87 -79 -116 -157 -115c-77 0 -158 28 -156 115zM514 264c1 -31 30 -45 70 -45s68 14 69 45c1 32 -37 46 -69 46c-33 0 -70 -14 -70 -46zM150 336h-88l150 294h-174v70h273l4 -33z" />
    <glyph glyph-name="arrowleft" unicode="&#x2190;" horiz-adv-x="629" 
d="M262 121l-230 229l230 229l56 -53l-129 -130h383v-93h-384l127 -133z" />
    <glyph glyph-name="arrowup" unicode="&#x2191;" horiz-adv-x="523" 
d="M33 397l229 230l229 -231l-53 -55l-130 129v-383h-93v384l-133 -127z" />
    <glyph glyph-name="arrowright" unicode="&#x2192;" horiz-adv-x="630" 
d="M367 580l230 -229l-231 -229l-55 53l129 130h-383v93h383l-126 133z" />
    <glyph glyph-name="arrowdown" unicode="&#x2193;" horiz-adv-x="523" 
d="M490 303l-229 -230l-229 231l53 55l130 -129v383h93v-384l133 127z" />
    <glyph glyph-name="uni2196" unicode="&#x2196;" horiz-adv-x="508" 
d="M62 215v324h325l2 -77l-184 -1l271 -271l-66 -66l-271 271l-4 -182z" />
    <glyph glyph-name="uni2197" unicode="&#x2197;" horiz-adv-x="509" 
d="M121 466l3 73h324c0 -109 -1 -217 -1 -325l-76 -2c0 61 -1 122 -1 183l-271 -271l-66 67l271 271z" />
    <glyph glyph-name="uni2198" unicode="&#x2198;" horiz-adv-x="550" 
d="M130 157l-2 72l183 5l-271 271l65 66l271 -271c0 61 1 122 1 184l77 -3v-324h-324z" />
    <glyph glyph-name="uni2199" unicode="&#x2199;" horiz-adv-x="549" 
d="M422 229l-3 -72h-324c0 108 1 216 1 324l76 3c0 -62 1 -123 1 -184l271 271l66 -66l-271 -271z" />
    <glyph glyph-name="partialdiff" unicode="&#x2202;" horiz-adv-x="591" 
d="M294 84c99 0 148 77 148 155c0 77 -49 154 -148 154c-98 0 -148 -77 -148 -154c0 -78 50 -155 148 -155zM252 480c54 6 120 -5 161 -43c-33 91 -166 162 -255 178l20 85c225 -41 370 -211 370 -449c1 -153 -95 -261 -254 -261c-170 0 -254 123 -254 248
c0 113 70 224 212 242z" />
    <glyph glyph-name="Delta" unicode="&#x2206;" horiz-adv-x="802" 
d="M441 700l335 -700h-750l334 700h81zM401 547l-226 -458h446z" />
    <glyph glyph-name="product" unicode="&#x220f;" horiz-adv-x="687" 
d="M601 -190h-112v786h-290v-786h-113v890h515v-890z" />
    <glyph glyph-name="summation" unicode="&#x2211;" horiz-adv-x="590" 
d="M370 364l-179 -258h347v-106h-500v63l211 303l-197 283v51h480v-99h-319z" />
    <glyph glyph-name="uni2215" unicode="&#x2215;" horiz-adv-x="457" 
d="M376 706h93l-384 -710h-92z" />
    <glyph glyph-name="uni2219" unicode="&#x2219;" horiz-adv-x="260" 
d="M63 314c0 88 134 88 134 0s-134 -88 -134 0z" />
    <glyph glyph-name="radical" unicode="&#x221a;" horiz-adv-x="613" 
d="M603 697l-233 -697h-79l-166 331l-83 -35l-27 67l173 78l149 -325l202 600z" />
    <glyph glyph-name="infinity" unicode="&#x221e;" horiz-adv-x="768" 
d="M216 163c-110 2 -165 80 -165 159c0 81 59 162 171 162c60 0 117 -49 161 -102c45 51 105 102 162 102c112 0 171 -81 171 -162c0 -80 -54 -157 -165 -159c-66 -1 -121 46 -168 101c-46 -54 -101 -102 -167 -101zM218 245c44 0 75 33 106 64c5 5 7 9 13 13l-9 11
c-32 35 -65 70 -110 70c-60 0 -90 -42 -88 -83c1 -38 31 -73 88 -75zM549 245c60 2 89 40 88 79c0 40 -29 79 -88 79c-45 0 -77 -36 -109 -71l-9 -10c4 -3 9 -8 12 -11v0c30 -32 62 -66 106 -66z" />
    <glyph glyph-name="integral" unicode="&#x222b;" horiz-adv-x="478" 
d="M179 -2v525c0 123 77 187 178 187c42 0 84 -14 121 -39l-40 -77c-26 17 -49 26 -75 26c-47 0 -80 -31 -80 -97v-525c0 -123 -73 -187 -175 -187c-41 0 -71 11 -108 36l39 76c26 -17 37 -22 64 -22c47 0 76 31 76 97z" />
    <glyph glyph-name="approxequal" unicode="&#x2248;" horiz-adv-x="578" 
d="M138 340l-68 42c26 52 77 82 129 82c65 4 113 -35 164 -44c36 -8 64 1 78 36l68 -33c-25 -64 -77 -104 -158 -87c-47 10 -104 47 -145 44c-26 2 -51 -16 -68 -40zM138 133l-68 41c27 55 76 82 129 82c65 5 113 -35 164 -44c36 -8 65 2 78 37l68 -34
c-25 -64 -77 -104 -158 -87c-47 10 -104 47 -145 44c-30 2 -50 -13 -68 -39z" />
    <glyph glyph-name="notequal" unicode="&#x2260;" horiz-adv-x="554" 
d="M64 155v95h152l73 124h-225v96h280l46 77l45 -26l-30 -51h83v-96h-138l-73 -124h211v-95h-266l-45 -78l-46 27l30 51h-97z" />
    <glyph glyph-name="lessequal" unicode="&#x2264;" horiz-adv-x="451" 
d="M62 84v86h324v-86h-324zM70 418v19l240 193l59 -64l-177 -139l178 -141l-60 -64z" />
    <glyph glyph-name="greaterequal" unicode="&#x2265;" horiz-adv-x="451" 
d="M388 170v-86h-323v86h323zM381 437v-19l-240 -196l-60 64l177 141l-176 139l58 64z" />
    <glyph glyph-name="lozenge" unicode="&#x25ca;" horiz-adv-x="580" 
d="M547 351l-215 -343h-86l-214 343l214 345h86zM145 351l144 -247l147 247l-147 247z" />
    <glyph glyph-name="a.alt" horiz-adv-x="555" 
d="M244 504c136 0 246 -44 246 -194v-310h-90l-6 61c-40 -48 -108 -69 -170 -69c-98 0 -193 47 -193 164c0 110 98 162 198 161c52 0 113 -10 157 -37v30c0 78 -71 103 -142 103c-56 0 -120 -17 -159 -35l-16 83c57 27 116 43 175 43zM135 156c0 -55 58 -77 109 -77
c68 0 141 43 142 114c-35 24 -94 38 -137 39c-60 0 -114 -22 -114 -76z" />
    <glyph glyph-name="agrave.alt" horiz-adv-x="555" 
d="M244 504c136 0 246 -44 246 -194v-310h-94l-6 61c-39 -48 -107 -69 -166 -69c-98 0 -193 47 -193 164c0 110 98 162 198 161c52 0 113 -10 157 -37v30c0 78 -71 103 -142 103c-56 0 -120 -17 -159 -35l-16 83c57 27 116 43 175 43zM135 156c0 -55 58 -77 109 -77
c68 0 141 43 142 114c-35 24 -94 38 -137 39c-60 0 -114 -22 -114 -76zM146 703v4h124l67 -124v-6h-93z" />
    <glyph glyph-name="aacute.alt" horiz-adv-x="555" 
d="M244 504c-59 0 -118 -16 -175 -43l16 -83c39 18 103 35 159 35c71 0 142 -25 142 -103v-30c-44 27 -105 37 -157 37c-100 1 -198 -51 -198 -161c0 -117 95 -164 193 -164c59 0 127 21 166 69l6 -61h94v310c0 150 -110 194 -246 194zM135 156c0 54 54 76 114 76
c43 -1 102 -15 137 -39c-1 -71 -74 -114 -142 -114c-51 0 -109 22 -109 77zM398 707v-4l-98 -126h-92v6l67 124h123z" />
    <glyph glyph-name="acircumflex.alt" horiz-adv-x="555" 
d="M239 710h60l143 -135v-6h-105l-68 62l-69 -62h-102v6zM244 504c-59 0 -118 -16 -175 -43l16 -83c39 18 103 35 159 35c71 0 142 -25 142 -103v-30c-44 27 -105 37 -157 37c-100 1 -198 -51 -198 -161c0 -117 95 -164 193 -164c62 0 130 21 170 69l6 -61h90v310
c0 150 -110 194 -246 194zM135 156c0 54 54 76 114 76c43 -1 102 -15 137 -39c-1 -71 -74 -114 -142 -114c-51 0 -109 22 -109 77z" />
    <glyph glyph-name="atilde.alt" horiz-adv-x="555" 
d="M244 504c136 0 246 -44 246 -194v-310h-94c-2 20 -4 41 -6 61c-40 -48 -104 -69 -166 -69c-98 0 -193 47 -193 164c0 110 98 162 198 161c52 0 113 -10 157 -37v30c0 78 -71 103 -142 103c-56 0 -120 -17 -159 -35l-16 83c57 27 116 43 175 43zM135 156
c0 -55 58 -77 109 -77c68 0 141 43 142 114c-35 24 -94 38 -137 39c-60 0 -114 -22 -114 -76zM184 594l-65 34c19 57 67 94 127 80c23 -6 44 -21 66 -28c21 -8 42 -5 56 27l69 -31c-23 -71 -69 -94 -114 -82c-29 7 -57 29 -84 34c-20 4 -41 -4 -55 -34z" />
    <glyph glyph-name="adieresis.alt" horiz-adv-x="555" 
d="M244 504c-59 0 -118 -16 -175 -43l16 -83c39 18 103 35 159 35c71 0 142 -25 142 -103v-30c-44 27 -105 37 -157 37c-100 1 -198 -51 -198 -161c0 -117 95 -164 193 -164c59 0 127 21 166 69l6 -61h94v310c0 150 -110 194 -246 194zM135 156c0 54 54 76 114 76
c43 -1 102 -15 137 -39c-1 -71 -74 -114 -142 -114c-51 0 -109 22 -109 77zM106 651c0 83 125 83 125 0c0 -82 -125 -82 -125 0zM324 651c0 83 124 83 124 0c0 -82 -124 -82 -124 0z" />
    <glyph glyph-name="amacron.alt" horiz-adv-x="555" 
d="M244 504c136 0 246 -44 246 -194v-310h-94l-6 61c-39 -48 -107 -69 -166 -69c-98 0 -193 47 -193 164c0 110 98 162 198 161c52 0 113 -10 157 -37v30c0 78 -71 103 -142 103c-56 0 -120 -17 -159 -35l-16 83c57 27 116 43 175 43zM135 156c0 -55 58 -77 109 -77
c68 0 141 43 142 114c-35 24 -94 38 -137 39c-60 0 -114 -22 -114 -76zM110 610v85h330v-85h-330z" />
    <glyph glyph-name="abreve.alt" horiz-adv-x="555" 
d="M244 504c136 0 246 -44 246 -194v-310h-94c-2 20 -4 41 -6 61c-40 -48 -104 -69 -166 -69c-98 0 -193 47 -193 164c0 110 98 162 198 161c52 0 113 -10 157 -37v30c0 78 -71 103 -142 103c-56 0 -120 -17 -159 -35l-16 83c57 27 116 43 175 43zM135 156
c0 -55 58 -77 109 -77c68 0 141 43 142 114c-35 24 -94 38 -137 39c-60 0 -114 -22 -114 -76zM330 707h84c6 -85 -53 -133 -125 -140c-85 -9 -172 40 -165 140h84c0 -37 23 -63 62 -63c36 0 60 25 60 63z" />
    <glyph glyph-name="aring.alt" horiz-adv-x="555" 
d="M244 504c136 0 246 -44 246 -194v-310h-94l-6 61c-39 -48 -107 -69 -166 -69c-98 0 -193 47 -193 164c0 110 98 162 198 161c52 0 113 -10 157 -37v30c0 78 -71 103 -142 103c-56 0 -120 -17 -159 -35l-16 83c57 27 116 43 175 43zM135 156c0 -55 58 -77 109 -77
c68 0 141 43 142 114c-35 24 -94 38 -137 39c-60 0 -114 -22 -114 -76zM152 662c0 68 59 103 119 103c59 0 119 -35 119 -103s-59 -103 -119 -103c-62 0 -119 35 -119 103zM270 710c-74 0 -73 -95 0 -95c75 0 72 95 0 95z" />
    <glyph glyph-name="aringacute.alt" horiz-adv-x="555" 
d="M244 504c-59 0 -118 -16 -175 -43l16 -83c39 18 103 35 159 35c71 0 142 -25 142 -103v-30c-44 27 -105 37 -157 37c-100 1 -198 -51 -198 -161c0 -117 95 -164 193 -164c59 0 127 21 166 69l6 -61h94v310c0 150 -110 194 -246 194zM135 156c0 54 54 76 114 76
c43 -1 102 -15 137 -39c-1 -71 -74 -114 -142 -114c-51 0 -109 22 -109 77zM159 632c0 -62 53 -93 111 -93c56 0 111 31 111 93s-56 94 -111 94c-56 0 -111 -32 -111 -94zM269 672c61 0 63 -78 0 -78c-62 0 -63 78 0 78zM416 850v-3l-103 -96h-87v4l72 95h118z" />
    <glyph glyph-name="aogonek.alt" horiz-adv-x="555" 
d="M135 156c0 -55 58 -77 109 -77c68 0 141 43 142 114c-35 24 -94 38 -137 39c-60 0 -114 -22 -114 -76zM244 504c136 0 246 -44 246 -194v-355c-48 7 -116 -13 -109 -53c2 -20 27 -38 61 -34c19 2 41 11 57 29l54 -40c-27 -46 -84 -67 -136 -64c-60 3 -106 35 -114 85
c-5 34 6 90 93 119c-2 21 -4 43 -6 64c-39 -48 -107 -69 -166 -69c-98 0 -193 47 -193 164c0 110 98 162 198 161c52 0 113 -10 157 -37v30c0 78 -71 103 -142 103c-56 0 -120 -17 -159 -35l-16 83c57 27 116 43 175 43z" />
    <glyph glyph-name="y.alt" 
d="M62 493h103v-264c0 -84 48 -142 134 -142c81 0 137 67 137 149v257h103v-507c0 -166 -111 -242 -233 -242c-133 0 -224 65 -234 188h101c14 -66 59 -93 131 -93c71 0 137 49 137 149v84c-46 -62 -102 -80 -171 -80c-121 0 -208 87 -208 236v265z" />
    <glyph glyph-name="yacute.alt" 
d="M165 493h-103v-265c0 -149 87 -236 208 -236c69 0 125 18 171 80v-84c0 -100 -66 -149 -137 -149c-72 0 -117 27 -131 93h-101c10 -123 101 -188 234 -188c122 0 233 76 233 242v507h-103v-257c0 -82 -56 -149 -137 -149c-86 0 -134 58 -134 142v264zM438 701v-4
l-104 -132h-92v6l73 130h123z" />
    <glyph glyph-name="ycircumflex.alt" 
d="M165 493h-103v-265c0 -149 87 -236 208 -236c69 0 125 18 171 80v-84c0 -100 -66 -149 -137 -149c-72 0 -117 27 -131 93h-101c10 -123 101 -188 234 -188c122 0 233 76 233 242v507h-103v-257c0 -82 -56 -149 -137 -149c-86 0 -134 58 -134 142v264zM274 712h60
l147 -136v-6h-107l-70 60l-70 -60h-107v6z" />
    <glyph glyph-name="ydieresis.alt" 
d="M165 493h-103v-265c0 -149 87 -236 208 -236c69 0 125 18 171 80v-84c0 -100 -66 -149 -137 -149c-72 0 -117 27 -131 93h-101c10 -123 101 -188 234 -188c122 0 233 76 233 242v507h-103v-257c0 -82 -56 -149 -137 -149c-86 0 -134 58 -134 142v264zM131 644
c0 83 123 83 123 0c0 -81 -123 -81 -123 0zM368 644c0 83 124 83 124 0c0 -81 -124 -81 -124 0z" />
    <glyph glyph-name="ygrave.alt" 
d="M62 493h103v-264c0 -84 48 -142 134 -142c81 0 137 67 137 149v257h103v-507c0 -166 -111 -242 -233 -242c-133 0 -224 65 -234 188h101c14 -66 59 -93 131 -93c71 0 137 49 137 149v84c-46 -62 -102 -80 -171 -80c-121 0 -208 87 -208 236v265zM173 697v4h124l73 -130
v-6h-92z" />
    <glyph glyph-name="igrave" unicode="&#xec;" horiz-adv-x="248" 
d="M-7 697v4h109l66 -134v-5h-92zM178 0h-108v481h108v-481z" />
    <glyph glyph-name="iacute" unicode="&#xed;" horiz-adv-x="248" 
d="M239 700v-4l-82 -134h-93v5l66 133h109zM70 0h108v481h-108v-481z" />
    <glyph glyph-name="icircumflex" unicode="&#xee;" horiz-adv-x="248" 
d="M95 711h53l128 -138v-6h-94l-61 58l-61 -58h-93v6zM70 0h108v481h-108v-481z" />
    <glyph glyph-name="idieresis" unicode="&#xef;" horiz-adv-x="248" 
d="M-25 647c0 82 124 82 124 0s-124 -82 -124 0zM158 647c0 82 125 82 125 0s-125 -82 -125 0zM70 0h108v481h-108v-481z" />
    </font>
</defs>
</svg>
